<svg width="35" height="35" viewBox="0 0 35 35" fill="none" xmlns="http://www.w3.org/2000/svg">
<g clip-path="url(#clip0_268_1740)">
<path d="M10.5729 14.1146C9.76751 14.1146 9.11458 14.7675 9.11458 15.5729V29.4271C9.11458 30.2325 9.76751 30.8854 10.5729 30.8854H24.4271C25.2325 30.8854 25.8854 30.2325 25.8854 29.4271V15.5729C25.8854 14.7675 25.2325 14.1146 24.4271 14.1146H10.5729ZM26.25 9.375H8.75C6.33376 9.375 4.375 11.3338 4.375 13.75V31.25C4.375 33.6663 6.33376 35.625 8.75 35.625H26.25C28.6663 35.625 30.625 33.6663 30.625 31.25V13.75C30.625 11.3338 28.6663 9.375 26.25 9.375ZM7.29167 13.75C7.29167 12.9446 7.94459 12.2917 8.75 12.2917H26.25C27.0554 12.2917 27.7083 12.9446 27.7083 13.75V31.25C27.7083 32.0554 27.0554 32.7083 26.25 32.7083H8.75C7.94459 32.7083 7.29167 32.0554 7.29167 31.25V13.75Z" fill="#212121"/>
</g>
<defs>
<clipPath id="clip0_268_1740">
<rect width="35" height="35" fill="white"/>
</clipPath>
</defs>
</svg>
