<svg width="44" height="44" viewBox="0 0 44 44" fill="none" xmlns="http://www.w3.org/2000/svg">
<path d="M5.92049 4.32952C5.48116 3.89016 4.76885 3.89016 4.32952 4.32952C3.89016 4.76885 3.89016 5.48116 4.32952 5.92049L12.2018 13.7928C8.43338 16.3565 5.62752 20.3661 4.63025 25.1453C4.50335 25.7535 4.89353 26.3495 5.50175 26.4764C6.10997 26.6033 6.7059 26.2131 6.83282 25.6047C7.7414 21.2507 10.3531 17.6415 13.826 15.417L17.3851 18.9761C15.3965 20.4055 14.1013 22.7389 14.1013 25.375C14.1013 29.7243 17.6271 33.25 21.9763 33.25C24.6123 33.25 26.9457 31.9549 28.3752 29.9661L38.0794 39.6706C38.5188 40.1098 39.2312 40.1098 39.6706 39.6706C40.1098 39.2312 40.1098 38.5188 39.6706 38.0794L5.92049 4.32952Z" fill="#453938"/>
<path d="M22 18L30 25C29.8361 21.199 26.3441 18.1434 22 18Z" fill="#453938"/>
<path d="M17 11.8781L18.7322 13.5989C19.8912 13.3004 21.0962 13.1428 22.3254 13.1428C29.24 13.1428 35.3913 18.1289 36.8656 25.1471C36.9872 25.7265 37.5586 26.0981 38.1416 25.9772C38.7247 25.8561 39.0987 25.2887 38.977 24.7095C37.3004 16.728 30.2921 11 22.3254 11C20.4808 11 18.6876 11.3071 17 11.8781Z" fill="#453938"/>
</svg>
