<svg width="17" height="15" viewBox="0 0 17 15" fill="none" xmlns="http://www.w3.org/2000/svg">
<path d="M15.9375 3.74996C15.9375 3.25268 15.7136 2.77576 15.3151 2.42413C14.9166 2.0725 14.3761 1.87496 13.8125 1.87496H13.2812V1.41939C13.2812 1.16714 13.0614 0.950641 12.7756 0.938043C12.7037 0.934989 12.632 0.944835 12.5646 0.966984C12.4972 0.989133 12.4356 1.02312 12.3835 1.0669C12.3315 1.11067 12.29 1.16331 12.2617 1.22164C12.2334 1.27996 12.2188 1.34275 12.2188 1.40621V1.87496H4.78125V1.41939C4.78125 1.16714 4.56145 0.950641 4.27557 0.938043C4.20374 0.934989 4.13195 0.944835 4.06456 0.966984C3.99717 0.989133 3.93558 1.02312 3.88352 1.0669C3.83146 1.11067 3.79001 1.16331 3.76169 1.22164C3.73336 1.27996 3.71876 1.34275 3.71875 1.40621V1.87496H3.1875C2.62391 1.87496 2.08341 2.0725 1.6849 2.42413C1.28638 2.77576 1.0625 3.25268 1.0625 3.74996V4.10152C1.0625 4.1326 1.07649 4.16241 1.1014 4.18438C1.12631 4.20636 1.16009 4.21871 1.19531 4.21871H15.8047C15.8399 4.21871 15.8737 4.20636 15.8986 4.18438C15.9235 4.16241 15.9375 4.1326 15.9375 4.10152V3.74996Z" fill="#453938"/>
<path d="M1.0625 12.1875C1.0625 12.6848 1.28638 13.1617 1.6849 13.5133C2.08341 13.865 2.62391 14.0625 3.1875 14.0625H13.8125C14.3761 14.0625 14.9166 13.865 15.3151 13.5133C15.7136 13.1617 15.9375 12.6848 15.9375 12.1875V5.27344C15.9375 5.24236 15.9235 5.21255 15.8986 5.19057C15.8737 5.1686 15.8399 5.15625 15.8047 5.15625H1.19531C1.16009 5.15625 1.12631 5.1686 1.1014 5.19057C1.07649 5.21255 1.0625 5.24236 1.0625 5.27344V12.1875Z" fill="#453938"/>
</svg>
