<svg width="25" height="7" viewBox="0 0 25 7" fill="none" xmlns="http://www.w3.org/2000/svg">
<path d="M3.32832 6.40625C1.55586 6.40625 0.125 5.11055 0.125 3.5C0.125 1.89551 1.55586 0.59375 3.32832 0.59375C5.10723 0.59375 6.53809 1.89551 6.53809 3.5C6.53809 5.11055 5.10723 6.40625 3.32832 6.40625Z" fill="#453938"/>
<path d="M12.4998 6.40625C10.7273 6.40625 9.29004 5.11055 9.29004 3.5C9.29004 1.89551 10.7273 0.59375 12.4998 0.59375C14.2723 0.59375 15.7031 1.89551 15.7031 3.5C15.7031 5.11055 14.2723 6.40625 12.4998 6.40625Z" fill="#453938"/>
<path d="M21.6648 6.40625C19.8924 6.40625 18.4551 5.11055 18.4551 3.5C18.4551 1.89551 19.8859 0.59375 21.6648 0.59375C23.4373 0.59375 24.8746 1.89551 24.8746 3.5C24.8746 5.11055 23.4438 6.40625 21.6648 6.40625Z" fill="#453938"/>
</svg>
