<svg width="26" height="25" viewBox="0 0 26 25" fill="none" xmlns="http://www.w3.org/2000/svg">
<ellipse cx="13" cy="12.5" rx="13" ry="12.5" fill="#F5F5F5"/>
<path d="M6.61261 14.1315C7.29606 10.8563 10.1479 8.52941 13.3535 8.52941C16.5592 8.52941 19.4109 10.8563 20.0944 14.1315C20.1509 14.4019 20.4157 14.5753 20.686 14.5189C20.9564 14.4624 21.1298 14.1976 21.0734 13.9273C20.296 10.2025 17.0469 7.52941 13.3535 7.52941C9.66012 7.52941 6.41094 10.2025 5.63369 13.9273C5.57729 14.1976 5.7507 14.4624 6.02102 14.5189C6.29134 14.5753 6.5562 14.4019 6.61261 14.1315Z" fill="#453938"/>
<path d="M13.3428 10.5294C15.2757 10.5294 16.8427 12.0964 16.8427 14.0294C16.8427 15.9624 15.2757 17.5294 13.3428 17.5294C11.4098 17.5294 9.84277 15.9624 9.84277 14.0294C9.84277 12.0964 11.4098 10.5294 13.3428 10.5294Z" fill="#453938"/>
</svg>
