<svg width="49" height="42" viewBox="0 0 49 42" fill="none" xmlns="http://www.w3.org/2000/svg">
<path d="M48.3784 35.4663C46.1922 31.9158 42.0628 28.957 36.7188 27.1817C35.2614 26.7872 33.561 26.7872 32.3465 27.3789C29.9174 28.5625 27.4883 29.1542 24.5734 29.1542C21.6585 29.1542 19.2294 28.5625 16.8004 27.3789C15.5858 26.9844 13.8855 26.7872 12.428 27.3789C7.08404 29.1542 2.95461 32.113 0.768437 35.6636C-0.931918 38.2279 1.74007 41.1867 5.38369 41.1867H43.7631C47.4068 41.1867 50.0787 38.2279 48.3784 35.4663Z" fill="#F5F5F5"/>
<path d="M24.5729 25.3198C31.4091 25.3198 36.9509 19.8144 36.9509 13.0232C36.9509 6.23195 31.4091 0.726562 24.5729 0.726562C17.7367 0.726562 12.1948 6.23195 12.1948 13.0232C12.1948 19.8144 17.7367 25.3198 24.5729 25.3198Z" fill="#F5F5F5"/>
</svg>
