<svg width="103" height="30" viewBox="0 0 103 30" fill="none" xmlns="http://www.w3.org/2000/svg">
<rect x="1.5" y="1.5" width="100" height="27" rx="8.5" stroke="#453938" stroke-width="3"/>
<ellipse cx="19.5" cy="15" rx="11.5" ry="11" fill="#453938"/>
<path d="M24.5887 18.8332L21.3618 15.5001L24.5887 12.1667C25.1371 11.6709 25.1371 10.8672 24.5887 10.3716C24.0399 9.87599 23.1508 9.8762 22.6027 10.3718L19.5 13.577L16.3973 10.3718C15.849 9.87641 14.9601 9.8762 14.4113 10.3716C13.8629 10.8675 13.8629 11.6711 14.4113 12.1667L17.6382 15.5001L14.4113 18.8332C13.8629 19.3289 13.8629 20.1325 14.4111 20.6281C14.9596 21.124 15.8488 21.124 16.3973 20.6281L19.5 17.4229L22.6027 20.6281C23.1515 21.124 24.0406 21.124 24.5889 20.6281C25.1371 20.1325 25.1371 19.3289 24.5887 18.8332Z" fill="#F5F5F5"/>
</svg>
