<svg width="114" height="90" viewBox="0 0 114 90" fill="none" xmlns="http://www.w3.org/2000/svg">
<path d="M111.841 76.9525C106.765 69.1096 97.1769 62.5739 84.7687 58.6525C81.3847 57.7811 77.4366 57.7811 74.6166 59.0882C68.9765 61.7025 63.3364 63.0096 56.5683 63.0096C49.8002 63.0096 44.1601 61.7025 38.5201 59.0882C35.7 58.2168 31.7519 57.7811 28.3679 59.0882C15.9597 63.0096 6.37157 69.5454 1.29549 77.3882C-2.65257 83.0525 3.55152 89.5882 12.0117 89.5882H101.125C109.585 89.5882 115.789 83.0525 111.841 76.9525Z" fill="#F5F5F5"/>
<path d="M56.5668 54.5397C72.4398 54.5397 85.3074 42.3788 85.3074 27.3776C85.3074 12.3764 72.4398 0.215576 56.5668 0.215576C40.6938 0.215576 27.8262 12.3764 27.8262 27.3776C27.8262 42.3788 40.6938 54.5397 56.5668 54.5397Z" fill="#F5F5F5"/>
</svg>
