<svg width="104" height="92" viewBox="0 0 104 92" fill="none" xmlns="http://www.w3.org/2000/svg">
<ellipse cx="52" cy="46" rx="52" ry="46" fill="#E6D63B"/>
<path d="M67.25 18.5415H35.75C32.8505 18.5415 30.5 20.8174 30.5 23.6248C30.5 26.4323 32.8505 28.7082 35.75 28.7082H67.25C70.1495 28.7082 72.5 26.4323 72.5 23.6248C72.5 20.8174 70.1495 18.5415 67.25 18.5415Z" fill="#232323"/>
<path d="M67.25 64.2915H35.75C32.8505 64.2915 30.5 66.5674 30.5 69.3748C30.5 72.1823 32.8505 74.4582 35.75 74.4582H67.25C70.1495 74.4582 72.5 72.1823 72.5 69.3748C72.5 66.5674 70.1495 64.2915 67.25 64.2915Z" fill="#232323"/>
<path d="M67.0138 33.7915C66.3969 37.3435 64.4999 40.5688 61.6598 42.8949C58.8196 45.221 55.22 46.4974 51.5001 46.4974C47.7801 46.4974 44.1806 45.221 41.3404 42.8949C38.5002 40.5688 36.6033 37.3435 35.9863 33.7915H67.0138Z" fill="#232323"/>
<path d="M67.0138 59.2083H35.9863C36.4643 56.4488 37.7184 53.8702 39.6108 51.7555C41.5032 49.6409 43.9608 48.072 46.7137 47.2211C49.4667 46.3703 52.4085 46.2703 55.2163 46.9322C58.0241 47.5941 60.5892 48.9923 62.6301 50.9733C64.9625 53.1943 66.4988 56.0803 67.0138 59.2083Z" fill="#232323"/>
</svg>
