<svg width="57" height="48" viewBox="0 0 57 48" fill="none" xmlns="http://www.w3.org/2000/svg">
<path d="M55.9156 40.3066C53.3888 36.1413 48.616 32.6703 42.4395 30.5877C40.755 30.1249 38.7897 30.1249 37.3859 30.8191C34.5784 32.2075 31.7709 32.9017 28.4019 32.9017C25.0329 32.9017 22.2253 32.2075 19.4178 30.8191C18.0141 30.3563 16.0488 30.1249 14.3643 30.8191C8.18775 32.9017 3.41497 36.3728 0.888206 40.538C-1.07706 43.5462 2.01121 47.0173 6.22249 47.0173H50.5813C54.7926 47.0173 57.8808 43.5462 55.9156 40.3066Z" fill="#F5F5F5"/>
<path d="M28.401 28.4702C36.3312 28.4702 42.7599 22.1754 42.7599 14.4104C42.7599 6.64539 36.3312 0.350586 28.401 0.350586C20.4707 0.350586 14.042 6.64539 14.042 14.4104C14.042 22.1754 20.4707 28.4702 28.401 28.4702Z" fill="#F5F5F5"/>
</svg>
