<svg width="46" height="38" viewBox="0 0 46 38" fill="none" xmlns="http://www.w3.org/2000/svg">
<path d="M43.2665 26.4454C45.4865 22.4839 45.9572 17.9988 44.5958 13.7775C43.2345 9.55616 40.1281 5.86859 35.8222 3.36228C31.5163 0.855974 26.2861 -0.308851 21.0501 0.0723455C15.8141 0.453542 10.9069 2.35639 7.19032 5.44676C3.47372 8.53713 1.18529 12.6174 0.726845 16.9712C0.268404 21.325 1.66927 25.6739 4.68345 29.2543C7.69763 32.8347 12.1324 35.4177 17.2091 36.5497C22.2858 37.6817 27.6798 37.2903 32.444 35.4443L40.3166 37.0796C40.9958 37.2206 41.7073 37.213 42.3819 37.0576C43.0565 36.9021 43.6713 36.6041 44.1663 36.1925C44.6613 35.7809 45.0197 35.2697 45.2067 34.7088C45.3936 34.1478 45.4027 33.5562 45.2331 32.9914L43.2665 26.4454Z" fill="#F2F2F2"/>
<path d="M14.9465 22.0119C17.1859 22.0119 19.0014 20.5023 19.0014 18.6402C19.0014 16.7781 17.1859 15.2686 14.9465 15.2686C12.707 15.2686 10.8916 16.7781 10.8916 18.6402C10.8916 20.5023 12.707 22.0119 14.9465 22.0119Z" fill="#4E423D"/>
<path d="M31.1662 22.0119C33.4057 22.0119 35.2211 20.5023 35.2211 18.6402C35.2211 16.7781 33.4057 15.2686 31.1662 15.2686C28.9268 15.2686 27.1113 16.7781 27.1113 18.6402C27.1113 20.5023 28.9268 22.0119 31.1662 22.0119Z" fill="#4E423D"/>
</svg>
