<svg width="70" height="59" viewBox="0 0 70 59" fill="none" xmlns="http://www.w3.org/2000/svg">
<rect width="70" height="58.7065" rx="26" fill="white"/>
<path d="M55.2665 36.4452C57.4865 32.4838 57.9572 27.9986 56.5958 23.7773C55.2345 19.556 52.1281 15.8685 47.8222 13.3622C43.5163 10.8559 38.2861 9.69103 33.0501 10.0722C27.8141 10.4534 22.9069 12.3563 19.1903 15.4466C15.4737 18.537 13.1853 22.6173 12.7268 26.9711C12.2684 31.3249 13.6693 35.6738 16.6834 39.2542C19.6976 42.8346 24.1324 45.4175 29.2091 46.5495C34.2858 47.6815 39.6798 47.2902 44.444 45.4442L52.3166 47.0794C52.9958 47.2205 53.7073 47.2129 54.3819 47.0575C55.0565 46.902 55.6713 46.604 56.1663 46.1924C56.6613 45.7808 57.0197 45.2696 57.2067 44.7087C57.3936 44.1477 57.4027 43.5561 57.2331 42.9913L55.2665 36.4452Z" fill="#453938"/>
<path d="M26.9465 32.012C29.1859 32.012 31.0014 30.5024 31.0014 28.6403C31.0014 26.7782 29.1859 25.2687 26.9465 25.2687C24.707 25.2687 22.8916 26.7782 22.8916 28.6403C22.8916 30.5024 24.707 32.012 26.9465 32.012Z" fill="#F5F5F5"/>
<path d="M43.1662 32.012C45.4057 32.012 47.2211 30.5024 47.2211 28.6403C47.2211 26.7782 45.4057 25.2687 43.1662 25.2687C40.9268 25.2687 39.1113 26.7782 39.1113 28.6403C39.1113 30.5024 40.9268 32.012 43.1662 32.012Z" fill="#F5F5F5"/>
</svg>
