<svg width="164" height="815" viewBox="0 0 164 815" fill="none" xmlns="http://www.w3.org/2000/svg">
<rect width="164" height="815" fill="url(#paint0_linear_264_579)"/>
<ellipse cx="82" cy="73" rx="52" ry="46" fill="#E6D63B"/>
<path d="M97.25 45.5415H65.75C62.8505 45.5415 60.5 47.8174 60.5 50.6248C60.5 53.4323 62.8505 55.7082 65.75 55.7082H97.25C100.149 55.7082 102.5 53.4323 102.5 50.6248C102.5 47.8174 100.149 45.5415 97.25 45.5415Z" fill="#232323"/>
<path d="M97.25 91.2915H65.75C62.8505 91.2915 60.5 93.5674 60.5 96.3748C60.5 99.1823 62.8505 101.458 65.75 101.458H97.25C100.149 101.458 102.5 99.1823 102.5 96.3748C102.5 93.5674 100.149 91.2915 97.25 91.2915Z" fill="#232323"/>
<path d="M97.0138 60.7915C96.3969 64.3435 94.4999 67.5688 91.6598 69.8949C88.8196 72.221 85.22 73.4974 81.5001 73.4974C77.7801 73.4974 74.1806 72.221 71.3404 69.8949C68.5002 67.5688 66.6033 64.3435 65.9863 60.7915H97.0138Z" fill="#232323"/>
<path d="M97.0138 86.2083H65.9863C66.4643 83.4488 67.7184 80.8702 69.6108 78.7555C71.5032 76.6409 73.9608 75.072 76.7137 74.2211C79.4667 73.3703 82.4085 73.2703 85.2163 73.9322C88.0241 74.5941 90.5892 75.9923 92.6301 77.9733C94.9625 80.1943 96.4988 83.0803 97.0138 86.2083Z" fill="#232323"/>
<path d="M105.378 280.466C103.192 276.916 99.0628 273.957 93.7188 272.182C92.2614 271.787 90.561 271.787 89.3465 272.379C86.9174 273.562 84.4883 274.154 81.5734 274.154C78.6585 274.154 76.2294 273.562 73.8004 272.379C72.5858 271.984 70.8855 271.787 69.428 272.379C64.084 274.154 59.9546 277.113 57.7684 280.664C56.0681 283.228 58.7401 286.187 62.3837 286.187H100.763C104.407 286.187 107.079 283.228 105.378 280.466Z" fill="#F5F5F5"/>
<path d="M81.5729 270.32C88.4091 270.32 93.9509 264.814 93.9509 258.023C93.9509 251.232 88.4091 245.727 81.5729 245.727C74.7367 245.727 69.1948 251.232 69.1948 258.023C69.1948 264.814 74.7367 270.32 81.5729 270.32Z" fill="#F5F5F5"/>
<rect x="47" y="335" width="70" height="58.7065" rx="26" fill="white"/>
<path d="M101.13 351.746L96.5589 347.247C95.5472 346.26 94.1804 345.707 92.7559 345.707H70.9748C69.5534 345.707 68.1801 346.264 67.1717 347.247L62.6004 351.746H51.2681V375.914H57.4144C59.1047 375.914 60.4684 374.572 60.478 372.918H61.3519L69.4766 380.139C72.4441 382.512 76.5641 382.569 79.6181 380.499C80.8185 381.519 82.115 382.001 83.5652 382.001C85.313 382.001 86.9553 381.302 88.2518 379.733C90.3742 380.555 92.8807 379.979 94.3981 378.145L96.9142 375.092C97.4521 374.44 97.7882 373.693 97.9611 372.918H103.522C103.531 374.572 104.904 375.914 106.585 375.914H112.731V351.746H101.13ZM55.8778 372.89C55.0327 372.89 54.3412 372.209 54.3412 371.378C54.3412 370.546 55.0327 369.865 55.8778 369.865C56.7229 369.865 57.4144 370.546 57.4144 371.378C57.4144 372.219 56.7229 372.89 55.8778 372.89ZM93.3321 372.238L90.8255 375.281C90.5566 375.603 90.0764 375.659 89.7403 375.395L87.445 373.561L84.5639 377.011C83.9877 377.701 83.1234 377.465 82.8353 377.238L79.3011 374.26L77.803 376.075C76.4681 377.691 74.0383 377.937 72.4921 376.699L63.1478 368.381H60.4876V356.274H64.5115L70.437 350.451C70.629 350.376 70.7923 350.31 70.9844 350.234H76.4296L72.713 353.589C69.8896 356.132 69.7263 360.423 72.2905 363.164C73.7118 364.695 78.1679 367.058 82.0382 363.58L82.8257 362.871L93.2168 371.17C93.5434 371.434 93.5914 371.916 93.3321 372.238ZM103.512 368.381H96.8662C96.6453 368.117 96.3957 367.871 96.1268 367.654L86.2638 359.771L87.4643 358.693C88.0885 358.126 88.1365 357.172 87.5603 356.557L86.5135 355.451C85.9373 354.837 84.9673 354.799 84.3431 355.357L79.0418 360.139C78.1295 360.962 76.5737 361.028 75.719 360.139C74.8258 359.204 74.9027 357.767 75.8342 356.935L82.1342 351.255C82.8449 350.612 83.7668 350.262 84.7272 350.262L92.7655 350.243C92.9671 350.243 93.1592 350.319 93.2937 350.461L99.2191 356.283H103.512V368.381ZM108.122 372.89C107.277 372.89 106.585 372.209 106.585 371.378C106.585 370.546 107.277 369.865 108.122 369.865C108.967 369.865 109.658 370.546 109.658 371.378C109.658 372.219 108.967 372.89 108.122 372.89Z" fill="#453938"/>
<path d="M102.266 458.445C104.487 454.484 104.957 449.999 103.596 445.777C102.234 441.556 99.1281 437.868 94.8222 435.362C90.5163 432.856 85.2861 431.691 80.0501 432.072C74.8141 432.453 69.9069 434.356 66.1903 437.447C62.4737 440.537 60.1853 444.617 59.7268 448.971C59.2684 453.325 60.6693 457.674 63.6834 461.254C66.6976 464.835 71.1324 467.418 76.2091 468.55C81.2858 469.682 86.6798 469.29 91.444 467.444L99.3166 469.079C99.9958 469.22 100.707 469.213 101.382 469.057C102.057 468.902 102.671 468.604 103.166 468.192C103.661 467.781 104.02 467.27 104.207 466.709C104.394 466.148 104.403 465.556 104.233 464.991L102.266 458.445Z" fill="#F2F2F2"/>
<path d="M73.9465 454.012C76.1859 454.012 78.0014 452.502 78.0014 450.64C78.0014 448.778 76.1859 447.269 73.9465 447.269C71.707 447.269 69.8916 448.778 69.8916 450.64C69.8916 452.502 71.707 454.012 73.9465 454.012Z" fill="#4E423D"/>
<path d="M90.1662 454.012C92.4057 454.012 94.2211 452.502 94.2211 450.64C94.2211 448.778 92.4057 447.269 90.1662 447.269C87.9268 447.269 86.1113 448.778 86.1113 450.64C86.1113 452.502 87.9268 454.012 90.1662 454.012Z" fill="#4E423D"/>
<path d="M102.532 549.472L94.9393 543.298C97.0319 540.82 98.2632 537.812 98.2621 534.586C98.264 530.342 96.1363 526.473 92.7145 523.695C89.2987 520.913 84.5402 519.183 79.3216 519.184C74.1034 519.183 69.345 520.913 65.9296 523.695C62.5081 526.473 60.3808 530.342 60.3823 534.586C60.3808 538.83 62.5081 542.699 65.9299 545.476C69.3457 548.258 74.1042 549.989 79.322 549.987C83.1154 549.988 86.6623 549.071 89.6303 547.504L97.291 553.733C98.7383 554.911 101.084 554.911 102.531 553.733C103.98 552.557 103.98 550.649 102.532 549.472ZM71.1705 541.214C69.0787 539.509 67.7958 537.184 67.7939 534.586C67.7958 531.988 69.0787 529.663 71.1709 527.957C73.2687 526.256 76.1273 525.212 79.322 525.211C82.5175 525.212 85.3761 526.256 87.4742 527.957C89.5661 529.663 90.849 531.987 90.8505 534.586C90.849 537.184 89.5661 539.509 87.4742 541.214C85.3764 542.916 82.5179 543.959 79.322 543.96C76.1273 543.959 73.2687 542.916 71.1705 541.214Z" fill="#F5F5F5"/>
<path d="M98.552 617.377L98.54 617.372L66.4968 604.747C66.2273 604.64 65.934 604.597 65.6432 604.624C65.3524 604.651 65.0732 604.746 64.8304 604.901C64.574 605.06 64.3633 605.278 64.2174 605.534C64.0715 605.79 63.995 606.077 63.9946 606.368V614.443C63.9948 614.841 64.1411 615.227 64.4085 615.534C64.6758 615.84 65.0474 616.049 65.4592 616.123L82.9356 619.193C83.0043 619.205 83.0662 619.24 83.1108 619.291C83.1554 619.342 83.1798 619.407 83.1798 619.473C83.1798 619.539 83.1554 619.604 83.1108 619.655C83.0662 619.706 83.0043 619.741 82.9356 619.753L65.4599 622.823C65.0483 622.897 64.6767 623.105 64.4092 623.412C64.1418 623.718 63.9952 624.103 63.9946 624.501V632.578C63.9944 632.856 64.0669 633.13 64.2056 633.375C64.3443 633.62 64.5448 633.828 64.7892 633.981C65.0831 634.167 65.4281 634.266 65.7811 634.266C66.0264 634.266 66.2693 634.219 66.4953 634.129L98.5378 621.575L98.552 621.568C98.9834 621.392 99.3509 621.1 99.6091 620.728C99.8674 620.355 100.005 619.919 100.005 619.473C100.005 619.027 99.8674 618.591 99.6091 618.218C99.3509 617.846 98.9834 617.554 98.552 617.377Z" fill="#F5F5F5"/>
<path d="M98.9119 704.144L98.1402 703.767C97.2217 703.32 96.6729 702.517 96.6729 701.62C96.6729 700.724 97.2217 699.921 98.1402 699.473L98.9119 699.097C101.019 698.068 101.739 695.797 100.523 694.017L99.0557 691.87C97.8423 690.093 95.1441 689.484 93.043 690.509L92.2713 690.884C91.3528 691.333 90.2538 691.333 89.3368 690.884C88.4183 690.436 87.8696 689.634 87.8696 688.737V687.985C87.8696 685.935 85.8947 684.266 83.4679 684.266H80.5334C78.1067 684.266 76.1318 685.935 76.1318 687.985V688.739C76.1318 689.635 75.583 690.437 74.6645 690.886C73.7461 691.333 72.6486 691.334 71.7301 690.886L70.9583 690.509C68.8573 689.484 66.159 690.093 64.9442 691.87L63.477 694.017C62.2606 695.797 62.981 698.069 65.088 699.097L65.8612 699.473C66.7797 699.921 67.3284 700.724 67.3284 701.62C67.3284 702.517 66.7797 703.32 65.8612 703.767L65.0894 704.144C62.9825 705.172 62.2621 707.444 63.4784 709.224L64.9456 711.371C66.1605 713.147 68.8587 713.757 70.9583 712.732L71.7301 712.356C72.6486 711.906 73.7461 711.909 74.6645 712.356C75.583 712.805 76.1318 713.607 76.1318 714.503V715.256C76.1318 717.306 78.1067 718.974 80.5334 718.974H83.4679C85.8947 718.974 87.8696 717.306 87.8696 715.256V714.502C87.8696 713.606 88.4183 712.804 89.3368 712.355C90.2538 711.908 91.3528 711.906 92.2713 712.355L93.043 712.732C95.1441 713.756 97.8423 713.146 99.0557 711.371L100.523 709.224C101.739 707.444 101.019 705.172 98.9119 704.144ZM82.0007 707.818C77.9555 707.818 74.6645 705.038 74.6645 701.62C74.6645 698.203 77.9555 695.422 82.0007 695.422C86.0458 695.422 89.3368 698.203 89.3368 701.62C89.3368 705.038 86.0458 707.818 82.0007 707.818Z" fill="#F5F5F5"/>
<defs>
<linearGradient id="paint0_linear_264_579" x1="82" y1="0" x2="82" y2="815" gradientUnits="userSpaceOnUse">
<stop stop-color="#453938" stop-opacity="0.77"/>
<stop offset="1" stop-color="#453938"/>
</linearGradient>
</defs>
</svg>
