<svg width="43" height="36" viewBox="0 0 43 36" fill="none" xmlns="http://www.w3.org/2000/svg">
<path d="M40.988 25.6028C43.1228 21.7674 43.5754 17.4249 42.2663 13.3378C40.9572 9.25079 37.9701 5.68052 33.8296 3.25392C29.689 0.82733 24.6597 -0.300446 19.6247 0.0686262C14.5898 0.437698 9.8711 2.28002 6.29723 5.2721C2.72336 8.26418 0.522806 12.2147 0.0819702 16.43C-0.358866 20.6453 0.9882 24.8559 3.88663 28.3224C6.78506 31.7889 11.0496 34.2897 15.9313 35.3857C20.813 36.4817 25.9999 36.1028 30.5811 34.3155L38.1514 35.8988C38.8045 36.0353 39.4887 36.028 40.1374 35.8775C40.7861 35.727 41.3772 35.4384 41.8532 35.0399C42.3292 34.6414 42.6739 34.1465 42.8537 33.6034C43.0334 33.0603 43.0422 32.4875 42.8791 31.9407L40.988 25.6028Z" fill="#453938"/>
<path d="M14 21C16.2091 21 18 19.6569 18 18C18 16.3431 16.2091 15 14 15C11.7909 15 10 16.3431 10 18C10 19.6569 11.7909 21 14 21Z" fill="white"/>
<path d="M30 21C32.2091 21 34 19.6569 34 18C34 16.3431 32.2091 15 30 15C27.7909 15 26 16.3431 26 18C26 19.6569 27.7909 21 30 21Z" fill="white"/>
</svg>
