<svg width="57" height="63" viewBox="0 0 57 63" fill="none" xmlns="http://www.w3.org/2000/svg">
<g clip-path="url(#clip0_256_748)">
<path d="M49.875 7.875H17.8125C16.8685 7.87806 15.964 8.29389 15.2965 9.03165C14.629 9.76941 14.2528 10.7692 14.25 11.8125V39.375C14.2528 40.4183 14.629 41.4181 15.2965 42.1558C15.964 42.8936 16.8685 43.3094 17.8125 43.3125H49.875C50.819 43.3094 51.7235 42.8936 52.391 42.1558C53.0585 41.4181 53.4347 40.4183 53.4375 39.375V11.8125C53.4347 10.7692 53.0585 9.76941 52.391 9.03165C51.7235 8.29389 50.819 7.87806 49.875 7.875ZM49.875 39.375H17.8125V11.8125H49.875V39.375Z" fill="#E6D63B"/>
<path d="M32.0625 51.1875H7.125V31.5H10.6875V27.5625H7.125C6.18102 27.5656 5.27649 27.9814 4.60899 28.7192C3.9415 29.4569 3.56527 30.4567 3.5625 31.5V51.1875C3.56527 52.2308 3.9415 53.2306 4.60899 53.9683C5.27649 54.7061 6.18102 55.1219 7.125 55.125H32.0625C33.0065 55.1219 33.911 54.7061 34.5785 53.9683C35.246 53.2306 35.6222 52.2308 35.625 51.1875V47.25H32.0625V51.1875Z" fill="#E6D63B"/>
</g>
<defs>
<clipPath id="clip0_256_748">
<rect width="57" height="63" fill="white"/>
</clipPath>
</defs>
</svg>
