<svg width="35" height="30" viewBox="0 0 35 30" fill="none" xmlns="http://www.w3.org/2000/svg">
<path d="M17.3775 18.1563C22.1092 18.1563 25.945 14.2001 25.945 9.31984C25.945 4.43961 22.1092 0.483398 17.3775 0.483398C12.6458 0.483398 8.81006 4.43961 8.81006 9.31984C8.81006 14.2001 12.6458 18.1563 17.3775 18.1563Z" fill="#453938"/>
<path d="M34.1696 25.6672C32.6275 23.0162 29.7146 20.8071 25.9449 19.4816C24.9168 19.1871 23.7173 19.1871 22.8606 19.6289C21.1471 20.5126 19.4336 20.9544 17.3774 20.9544C15.3212 20.9544 13.6077 20.5126 11.8942 19.6289C11.0375 19.3344 9.83804 19.1871 8.80994 19.6289C5.04026 20.9544 2.12732 23.1635 0.585176 25.8144C-0.61427 27.729 1.27057 29.9381 3.84081 29.9381H30.914C33.4842 29.9381 35.3691 27.729 34.1696 25.6672Z" fill="#453938"/>
</svg>
