<svg width="136" height="105" viewBox="0 0 136 105" fill="none" xmlns="http://www.w3.org/2000/svg">
<path d="M68.3469 63.1562C86.9179 63.1562 101.973 49.1587 101.973 31.892C101.973 14.6254 86.9179 0.62793 68.3469 0.62793C49.7759 0.62793 34.7212 14.6254 34.7212 31.892C34.7212 49.1587 49.7759 63.1562 68.3469 63.1562Z" fill="#F5F5F5"/>
<path d="M134.253 89.7308C128.2 80.3516 116.767 72.5356 101.972 67.8459C97.9369 66.8038 93.2293 66.8038 89.8667 68.367C83.1416 71.4934 76.4164 73.0566 68.3463 73.0566C60.2761 73.0566 53.5509 71.4934 46.8258 68.367C43.4632 67.3249 38.7556 66.8038 34.7205 68.367C19.9252 73.0566 8.49248 80.8727 2.43985 90.2519C-2.26775 97.0258 5.12991 104.842 15.2176 104.842H121.475C131.563 104.842 138.96 97.0258 134.253 89.7308Z" fill="#F5F5F5"/>
</svg>
