<svg width="62" height="37" viewBox="0 0 62 37" fill="none" xmlns="http://www.w3.org/2000/svg">
<path d="M50.1303 6.74624L45.5589 2.24719C44.5472 1.26025 43.1804 0.706532 41.7559 0.706543H19.9748C18.5534 0.706543 17.1801 1.2642 16.1717 2.24719L11.6004 6.74624H0.268066V30.9145H6.41441C8.10465 30.9145 9.46837 29.5723 9.47797 27.9182H10.3519L18.4766 35.1394C21.4441 37.5118 25.5641 37.5685 28.6181 35.4986C29.8185 36.5194 31.115 37.0014 32.5652 37.0014C34.313 37.0014 35.9553 36.302 37.2518 34.733C39.3742 35.5553 41.8807 34.9787 43.3981 33.1451L45.9142 30.0922C46.4521 29.44 46.7882 28.6933 46.9611 27.9182H52.5216C52.5312 29.5723 53.9045 30.9145 55.5851 30.9145H61.7315V6.74624H50.1303ZM4.87782 27.8899C4.0327 27.8899 3.34124 27.2094 3.34124 26.3776C3.34124 25.5459 4.0327 24.8653 4.87782 24.8653C5.72294 24.8653 6.41441 25.5459 6.41441 26.3776C6.41441 27.2188 5.72294 27.8899 4.87782 27.8899ZM42.3321 27.2377L39.8255 30.2812C39.5566 30.6026 39.0764 30.6593 38.7403 30.3946L36.445 28.561L33.5639 32.0109C32.9877 32.7009 32.1234 32.4646 31.8353 32.2377L28.3011 29.2604L26.803 31.0751C25.4681 32.6914 23.0383 32.9371 21.4921 31.699L12.1478 23.3814H9.48758V11.2736H13.5115L19.437 5.45134C19.629 5.37573 19.7923 5.30957 19.9844 5.23395H25.4296L21.713 8.58934C18.8896 11.1319 18.7263 15.423 21.2905 18.164C22.7118 19.6952 27.1679 22.0581 31.0382 18.5799L31.8257 17.871L42.2168 26.1697C42.5434 26.4343 42.5914 26.9164 42.3321 27.2377ZM52.512 23.3814H45.8662C45.6453 23.1167 45.3957 22.871 45.1268 22.6536L35.2638 14.7708L36.4643 13.6933C37.0885 13.1262 37.1365 12.1716 36.5603 11.5572L35.5135 10.4513C34.9373 9.83697 33.9673 9.79917 33.3431 10.3568L28.0418 15.1394C27.1295 15.9617 25.5737 16.0279 24.719 15.1394C23.8258 14.2037 23.9027 12.767 24.8342 11.9353L31.1342 6.25474C31.8449 5.61202 32.7668 5.26231 33.7272 5.26231L41.7655 5.2434C41.9671 5.2434 42.1592 5.31902 42.2937 5.46079L48.2191 11.2831H52.512V23.3814ZM57.1217 27.8899C56.2766 27.8899 55.5851 27.2094 55.5851 26.3776C55.5851 25.5459 56.2766 24.8653 57.1217 24.8653C57.9668 24.8653 58.6583 25.5459 58.6583 26.3776C58.6583 27.2188 57.9668 27.8899 57.1217 27.8899Z" fill="#F5F5F5"/>
</svg>
