<svg width="36" height="30" viewBox="0 0 36 30" fill="none" xmlns="http://www.w3.org/2000/svg">
<path d="M33.9128 13.1332L33.9012 13.1284L3.02848 0.899555C2.76881 0.79576 2.48624 0.755053 2.20606 0.781076C1.92589 0.807098 1.65683 0.899037 1.42296 1.04867C1.17588 1.20329 0.972923 1.41414 0.832353 1.66226C0.691783 1.91038 0.618012 2.18799 0.617676 2.4701V10.291C0.617813 10.6767 0.758825 11.0502 1.01641 11.3473C1.27399 11.6443 1.632 11.8462 2.02874 11.9182L18.8668 14.8915C18.9329 14.9035 18.9927 14.9372 19.0356 14.9867C19.0786 15.0362 19.1021 15.0985 19.1021 15.1628C19.1021 15.2271 19.0786 15.2894 19.0356 15.339C18.9927 15.3885 18.9329 15.4222 18.8668 15.4341L2.02946 18.4075C1.63283 18.4793 1.27484 18.6809 1.01714 18.9777C0.759449 19.2744 0.618182 19.6477 0.617676 20.0332V27.8555C0.617484 28.1249 0.687328 28.3901 0.820941 28.6274C0.954554 28.8646 1.14775 29.0665 1.38321 29.2148C1.66643 29.3946 1.99881 29.4906 2.33885 29.491C2.57525 29.4908 2.80922 29.4455 3.02704 29.3577L33.8991 17.1987L33.9128 17.1924C34.3284 17.0219 34.6825 16.7387 34.9313 16.378C35.1801 16.0173 35.3127 15.5948 35.3127 15.1628C35.3127 14.7309 35.1801 14.3084 34.9313 13.9476C34.6825 13.5869 34.3284 13.3038 33.9128 13.1332Z" fill="#4E423D"/>
</svg>
