<svg width="37" height="30" viewBox="0 0 37 30" fill="none" xmlns="http://www.w3.org/2000/svg">
<path d="M34.5574 12.761L34.5454 12.756L2.5022 0.130212C2.23269 0.0230477 1.93941 -0.0189809 1.64861 0.00788596C1.35781 0.0347528 1.07855 0.129677 0.835819 0.284168C0.579367 0.443803 0.368715 0.661503 0.222816 0.917679C0.0769172 1.17385 0.000348954 1.46047 4.09665e-07 1.75174V9.82657C0.000142913 10.2248 0.1465 10.6104 0.413847 10.9171C0.681193 11.2238 1.05278 11.4322 1.46456 11.5065L18.941 14.5764C19.0096 14.5888 19.0716 14.6235 19.1162 14.6746C19.1608 14.7258 19.1852 14.7901 19.1852 14.8565C19.1852 14.9229 19.1608 14.9872 19.1162 15.0384C19.0716 15.0895 19.0096 15.1243 18.941 15.1366L1.46531 18.2065C1.05364 18.2806 0.68208 18.4888 0.414614 18.7952C0.147148 19.1016 0.000525216 19.487 4.09665e-07 19.885V27.9613C-0.000198849 28.2394 0.0722932 28.5132 0.210972 28.7582C0.34965 29.0031 0.550175 29.2115 0.794553 29.3647C1.08851 29.5502 1.4335 29.6494 1.78643 29.6498C2.03179 29.6496 2.27463 29.6028 2.5007 29.5122L34.5432 16.9584L34.5574 16.952C34.9887 16.7759 35.3562 16.4836 35.6145 16.1111C35.8727 15.7387 36.0104 15.3025 36.0104 14.8565C36.0104 14.4105 35.8727 13.9743 35.6145 13.6019C35.3562 13.2294 34.9887 12.9371 34.5574 12.761Z" fill="#453938"/>
</svg>
