<svg width="36" height="31" viewBox="0 0 36 31" fill="none" xmlns="http://www.w3.org/2000/svg">
<path d="M34.552 13.3775L34.54 13.3725L2.49683 0.746667C2.22731 0.639503 1.93404 0.597474 1.64324 0.624341C1.35244 0.651208 1.07318 0.746132 0.830448 0.900623C0.573996 1.06026 0.363344 1.27796 0.217445 1.53413C0.0715461 1.79031 -0.00502214 2.07692 -0.00537068 2.36819V10.443C-0.00522818 10.8412 0.141129 11.2269 0.408476 11.5335C0.675822 11.8402 1.04741 12.0487 1.45919 12.123L18.9356 15.1928C19.0043 15.2052 19.0662 15.24 19.1108 15.2911C19.1554 15.3422 19.1798 15.4066 19.1798 15.473C19.1798 15.5394 19.1554 15.6037 19.1108 15.6548C19.0662 15.706 19.0043 15.7407 18.9356 15.7531L1.45994 18.8229C1.04827 18.8971 0.676709 19.1052 0.409243 19.4116C0.141777 19.718 -0.00484588 20.1034 -0.00537068 20.5015V28.5777C-0.00556994 28.8559 0.0669222 29.1297 0.2056 29.3746C0.344279 29.6196 0.544804 29.828 0.789182 29.9811C1.08314 30.1667 1.42813 30.2659 1.78106 30.2663C2.02642 30.266 2.26926 30.2193 2.49533 30.1287L34.5378 17.5749L34.552 17.5685C34.9834 17.3924 35.3509 17.1 35.6091 16.7276C35.8674 16.3551 36.005 15.9189 36.005 15.473C36.005 15.027 35.8674 14.5908 35.6091 14.2183C35.3509 13.8459 34.9834 13.5535 34.552 13.3775Z" fill="#F5F5F5"/>
</svg>
