<svg width="41" height="34" viewBox="0 0 41 34" fill="none" xmlns="http://www.w3.org/2000/svg">
<path d="M39.9702 29.0635L32.7704 23.1395C34.7548 20.7613 35.9224 17.8745 35.9214 14.779C35.9232 10.7073 33.9055 6.99435 30.6606 4.32874C27.4214 1.65905 22.9089 -0.00116506 17.9602 6.13542e-07C13.0117 -0.00116506 8.4993 1.65876 5.26044 4.32874C2.01592 6.99406 -0.00141592 10.707 7.45649e-07 14.779C-0.00141592 18.8513 2.01592 22.564 5.2608 25.229C8.50001 27.899 13.0124 29.5592 17.9605 29.5575C21.5578 29.5586 24.9213 28.6788 27.7359 27.1751L35.0005 33.1524C36.3729 34.2825 38.5978 34.2825 39.9699 33.1524C41.3433 32.0235 41.3433 30.1928 39.9702 29.0635ZM10.2305 21.1398C8.24678 19.5032 7.03021 17.2721 7.02844 14.779C7.03021 12.2859 8.24678 10.0551 10.2308 8.41822C12.2202 6.78569 14.931 5.78467 17.9605 5.78321C20.9908 5.78467 23.7016 6.78569 25.6913 8.41793C27.675 10.0551 28.8915 12.2856 28.8929 14.779C28.8915 17.2721 27.675 19.5032 25.6913 21.1398C23.7019 22.7724 20.9911 23.7731 17.9605 23.7743C14.931 23.7731 12.2202 22.7724 10.2305 21.1398Z" fill="#453938"/>
</svg>
