<svg width="46" height="27" viewBox="0 0 46 27" fill="none" xmlns="http://www.w3.org/2000/svg">
<path d="M37.3175 4.49297L33.8962 1.14609C33.1391 0.411906 32.1161 -8.14639e-06 31.05 1.20834e-10H14.7487C13.685 1.20834e-10 12.6572 0.414844 11.9025 1.14609L8.48125 4.49297H0V22.4719H4.6C5.865 22.4719 6.88562 21.4734 6.89281 20.243H7.54688L13.6275 25.6148C15.8484 27.3797 18.9319 27.4219 21.2175 25.882C22.1159 26.6414 23.0862 27 24.1716 27C25.4797 27 26.7087 26.4797 27.6791 25.3125C29.2675 25.9242 31.1434 25.4953 32.2791 24.1313L34.1622 21.8602C34.5647 21.375 34.8162 20.8195 34.9456 20.243H39.1072C39.1144 21.4734 40.1422 22.4719 41.4 22.4719H46V4.49297H37.3175ZM3.45 20.2219C2.8175 20.2219 2.3 19.7156 2.3 19.0969C2.3 18.4781 2.8175 17.9719 3.45 17.9719C4.0825 17.9719 4.6 18.4781 4.6 19.0969C4.6 19.7227 4.0825 20.2219 3.45 20.2219ZM31.4812 19.7367L29.6053 22.0008C29.4041 22.2398 29.0447 22.282 28.7931 22.0852L27.0753 20.7211L24.9191 23.2875C24.4878 23.8008 23.8409 23.625 23.6253 23.4563L20.9803 21.2414L19.8591 22.5914C18.86 23.7937 17.0416 23.9766 15.8844 23.0555L8.89094 16.868H6.9V7.86094H9.91156L14.3463 3.52969C14.49 3.47344 14.6122 3.42422 14.7559 3.36797H18.8312L16.0497 5.86406C13.9366 7.75547 13.8144 10.9477 15.7334 12.9867C16.7972 14.1258 20.1322 15.8836 23.0287 13.2961L23.6181 12.7688L31.395 18.9422C31.6394 19.1391 31.6753 19.4977 31.4812 19.7367ZM39.1 16.868H34.1262C33.9609 16.6711 33.7741 16.4883 33.5728 16.3266L26.1912 10.4625L27.0897 9.66094C27.5569 9.23906 27.5928 8.52891 27.1616 8.07188L26.3781 7.24922C25.9469 6.79219 25.2209 6.76406 24.7537 7.17891L20.7863 10.7367C20.1034 11.3484 18.9391 11.3977 18.2994 10.7367C17.6309 10.0406 17.6884 8.97188 18.3856 8.35313L23.1006 4.12734C23.6325 3.64922 24.3225 3.38906 25.0412 3.38906L31.0572 3.375C31.2081 3.375 31.3519 3.43125 31.4525 3.53672L35.8872 7.86797H39.1V16.868ZM42.55 20.2219C41.9175 20.2219 41.4 19.7156 41.4 19.0969C41.4 18.4781 41.9175 17.9719 42.55 17.9719C43.1825 17.9719 43.7 18.4781 43.7 19.0969C43.7 19.7227 43.1825 20.2219 42.55 20.2219Z" fill="#453938"/>
</svg>
