<svg width="32" height="28" viewBox="0 0 32 28" fill="none" xmlns="http://www.w3.org/2000/svg">
<path d="M0.25 23.5241L7.31667 17.2622C6.16666 15.5053 5.56667 13.5517 5.56667 11.5834C5.56667 5.1976 11.5 0 18.7833 0C26.0667 0 32 5.1976 32 11.5834C32 17.9693 26.0667 23.1669 18.7833 23.1669C16.4583 23.1669 14.1583 22.6056 12.1083 21.534L5.075 27.774C4.91667 27.9125 4.69167 28 4.46667 28C4.24167 28 4.01666 27.9198 3.85833 27.774L0.25 24.5811C-0.0833359 24.2822 -0.0833359 23.8157 0.25 23.5241ZM18.7833 4.51237C14.3333 4.51237 10.7167 7.68341 10.7167 11.5834C10.7167 15.4835 14.3333 18.6545 18.7833 18.6545C23.2333 18.6545 26.85 15.4835 26.85 11.5834C26.85 7.68341 23.2333 4.51237 18.7833 4.51237Z" fill="#453938"/>
</svg>
