<svg width="35" height="31" viewBox="0 0 35 31" fill="none" xmlns="http://www.w3.org/2000/svg">
<path d="M0.273438 25.7646L8.0026 18.9063C6.74479 16.9821 6.08854 14.8424 6.08854 12.6867C6.08854 5.69265 12.5781 0 20.5443 0C28.5104 0 35 5.69265 35 12.6867C35 19.6808 28.5104 25.3734 20.5443 25.3734C18.0013 25.3734 15.4857 24.7586 13.2435 23.585L5.55078 30.4194C5.3776 30.5711 5.13151 30.6669 4.88542 30.6669C4.63932 30.6669 4.39323 30.579 4.22005 30.4194L0.273438 26.9223C-0.0911484 26.595 -0.0911484 26.084 0.273438 25.7646ZM20.5443 4.94215C15.6771 4.94215 11.7214 8.41522 11.7214 12.6867C11.7214 16.9582 15.6771 20.4313 20.5443 20.4313C25.4115 20.4313 29.3672 16.9582 29.3672 12.6867C29.3672 8.41522 25.4115 4.94215 20.5443 4.94215Z" fill="#453938"/>
</svg>
