<svg width="44" height="36" viewBox="0 0 44 36" fill="none" xmlns="http://www.w3.org/2000/svg">
<path d="M42.5317 30.472L34.9393 24.2984C37.0319 21.8199 38.2632 18.8115 38.2621 15.5856C38.264 11.3424 36.1363 7.47299 32.7145 4.69507C29.2987 1.91291 24.5402 0.182746 19.3216 0.183961C14.1034 0.182746 9.34499 1.9126 5.92956 4.69507C2.50815 7.47269 0.380831 11.3421 0.382325 15.5856C0.380831 19.8295 2.50815 23.6986 5.92993 26.4759C9.34574 29.2584 14.1042 30.9885 19.322 30.9867C23.1154 30.9879 26.6623 30.0711 29.6303 28.504L37.2911 34.7331C38.7383 35.9109 41.0844 35.9109 42.5313 34.7331C43.9796 33.5566 43.9796 31.6488 42.5317 30.472ZM11.1705 22.2144C9.0787 20.5089 7.79581 18.1838 7.79395 15.5856C7.79581 12.9875 9.0787 10.6627 11.1709 8.95685C13.2687 7.25554 16.1273 6.21234 19.322 6.21083C22.5175 6.21234 25.3761 7.25554 27.4742 8.95655C29.5661 10.6627 30.849 12.9872 30.8505 15.5856C30.849 18.1838 29.5661 20.5089 27.4742 22.2144C25.3764 23.9157 22.5179 24.9586 19.322 24.9599C16.1273 24.9586 13.2687 23.9157 11.1705 22.2144Z" fill="#F5F5F5"/>
</svg>
