<svg width="44" height="36" viewBox="0 0 44 36" fill="none" xmlns="http://www.w3.org/2000/svg">
<path d="M42.5317 30.4721L34.9393 24.2985C37.0319 21.8201 38.2632 18.8116 38.2621 15.5858C38.264 11.3425 36.1363 7.47311 32.7145 4.6952C29.2987 1.91303 24.5402 0.182868 19.3216 0.184083C14.1034 0.182868 9.34499 1.91272 5.92956 4.6952C2.50815 7.47281 0.380831 11.3422 0.382325 15.5858C0.380831 19.8296 2.50815 23.6987 5.92993 26.476C9.34574 29.2585 14.1042 30.9887 19.322 30.9868C23.1154 30.9881 26.6623 30.0712 29.6303 28.5041L37.291 34.7332C38.7383 35.911 41.0844 35.911 42.5313 34.7332C43.9796 33.5567 43.9796 31.6489 42.5317 30.4721ZM11.1705 22.2146C9.0787 20.509 7.79581 18.1839 7.79395 15.5858C7.79581 12.9876 9.0787 10.6628 11.1709 8.95697C13.2687 7.25566 16.1273 6.21247 19.322 6.21095C22.5175 6.21247 25.3761 7.25566 27.4742 8.95667C29.5661 10.6628 30.849 12.9873 30.8505 15.5858C30.849 18.1839 29.5661 20.509 27.4742 22.2146C25.3764 23.9159 22.5179 24.9588 19.322 24.96C16.1273 24.9588 13.2687 23.9159 11.1705 22.2146Z" fill="#F5F5F5"/>
</svg>
