<svg width="23" height="19" viewBox="0 0 23 19" fill="none" xmlns="http://www.w3.org/2000/svg">
<path d="M0.179688 15.9628L5.25885 11.7136C4.43229 10.5215 4.00104 9.19578 4.00104 7.86019C4.00104 3.52695 8.26562 0 13.5005 0C18.7354 0 23 3.52695 23 7.86019C23 12.1934 18.7354 15.7204 13.5005 15.7204C11.8294 15.7204 10.1763 15.3395 8.70286 14.6123L3.64766 18.8467C3.53385 18.9406 3.37214 19 3.21042 19C3.0487 19 2.88698 18.9456 2.77318 18.8467L0.179688 16.68C-0.0598946 16.4772 -0.0598946 16.1606 0.179688 15.9628ZM13.5005 3.06196C10.3021 3.06196 7.70261 5.21375 7.70261 7.86019C7.70261 10.5066 10.3021 12.6584 13.5005 12.6584C16.699 12.6584 19.2984 10.5066 19.2984 7.86019C19.2984 5.21375 16.699 3.06196 13.5005 3.06196Z" fill="#453938"/>
</svg>
