<svg width="40" height="35" viewBox="0 0 40 35" fill="none" xmlns="http://www.w3.org/2000/svg">
<path d="M36.9119 20.144L36.1402 19.7672C35.2217 19.3197 34.6729 18.5164 34.6729 17.6202C34.6729 16.724 35.2217 15.9208 36.1402 15.4733L36.9119 15.0964C39.0188 14.0676 39.7393 11.7967 38.5229 10.0166L37.0557 7.86969C35.8423 6.09337 33.1441 5.4835 31.043 6.50863L30.2713 6.88423C29.3528 7.33295 28.2538 7.33295 27.3368 6.88423C26.4183 6.4355 25.8696 5.63349 25.8696 4.73727V3.98485C25.8696 1.93459 23.8947 0.266113 21.4679 0.266113H18.5334C16.1067 0.266113 14.1318 1.93459 14.1318 3.98485V4.73851C14.1318 5.63473 13.583 6.43674 12.6645 6.88547C11.7461 7.33295 10.6486 7.33419 9.7301 6.88547L8.95833 6.50863C6.85727 5.4835 4.15904 6.09337 2.94418 7.86969L1.47695 10.0166C0.260621 11.7967 0.981029 14.0688 3.08796 15.0964L3.86119 15.4733C4.77968 15.9208 5.32842 16.724 5.32842 17.6202C5.32842 18.5164 4.77968 19.3197 3.86119 19.7672L3.08943 20.144C0.982496 21.1716 0.262088 23.4438 1.47842 25.2238L2.94564 27.3707C4.16051 29.1471 6.85873 29.7569 8.95833 28.7318L9.7301 28.3562C10.6486 27.9062 11.7461 27.9087 12.6645 28.3562C13.583 28.8049 14.1318 29.6069 14.1318 30.5032V31.2556C14.1318 33.3059 16.1067 34.9743 18.5334 34.9743H21.4679C23.8947 34.9743 25.8696 33.3059 25.8696 31.2556V30.5019C25.8696 29.6057 26.4183 28.8037 27.3368 28.355C28.2538 27.9075 29.3528 27.9062 30.2713 28.355L31.043 28.7318C33.1441 29.7557 35.8423 29.1458 37.0557 27.3707L38.5229 25.2238C39.7393 23.4438 39.0188 21.1716 36.9119 20.144ZM20.0007 23.8181C15.9555 23.8181 12.6645 21.0377 12.6645 17.6202C12.6645 14.2027 15.9555 11.4223 20.0007 11.4223C24.0458 11.4223 27.3368 14.2027 27.3368 17.6202C27.3368 21.0377 24.0458 23.8181 20.0007 23.8181Z" fill="#F5F5F5"/>
</svg>
