<svg width="40" height="35" viewBox="0 0 40 35" fill="none" xmlns="http://www.w3.org/2000/svg">
<path d="M36.9119 20.1441L36.1402 19.7673C35.2217 19.3198 34.6729 18.5166 34.6729 17.6203C34.6729 16.7241 35.2217 15.9209 36.1402 15.4734L36.9119 15.0966C39.0188 14.0677 39.7393 11.7968 38.5229 10.0168L37.0557 7.86981C35.8423 6.0935 33.1441 5.48362 31.043 6.50876L30.2713 6.88435C29.3528 7.33308 28.2538 7.33308 27.3368 6.88435C26.4183 6.43562 25.8696 5.63361 25.8696 4.7374V3.98497C25.8696 1.93471 23.8947 0.266235 21.4679 0.266235H18.5334C16.1067 0.266235 14.1318 1.93471 14.1318 3.98497V4.73864C14.1318 5.63485 13.583 6.43686 12.6645 6.88559C11.7461 7.33308 10.6486 7.33432 9.7301 6.88559L8.95833 6.50876C6.85727 5.48362 4.15904 6.0935 2.94418 7.86981L1.47695 10.0168C0.260621 11.7968 0.981029 14.0689 3.08796 15.0966L3.86119 15.4734C4.77968 15.9209 5.32842 16.7241 5.32842 17.6203C5.32842 18.5166 4.77968 19.3198 3.86119 19.7673L3.08943 20.1441C0.982496 21.1717 0.262088 23.4439 1.47842 25.2239L2.94564 27.3709C4.16051 29.1472 6.85873 29.7571 8.95833 28.7319L9.7301 28.3563C10.6486 27.9064 11.7461 27.9088 12.6645 28.3563C13.583 28.8051 14.1318 29.6071 14.1318 30.5033V31.2557C14.1318 33.306 16.1067 34.9744 18.5334 34.9744H21.4679C23.8947 34.9744 25.8696 33.306 25.8696 31.2557V30.502C25.8696 29.6058 26.4183 28.8038 27.3368 28.3551C28.2538 27.9076 29.3528 27.9064 30.2713 28.3551L31.043 28.7319C33.1441 29.7558 35.8423 29.1459 37.0557 27.3709L38.5229 25.2239C39.7393 23.4439 39.0188 21.1717 36.9119 20.1441ZM20.0007 23.8182C15.9555 23.8182 12.6645 21.0379 12.6645 17.6203C12.6645 14.2028 15.9555 11.4224 20.0007 11.4224C24.0458 11.4224 27.3368 14.2028 27.3368 17.6203C27.3368 21.0379 24.0458 23.8182 20.0007 23.8182Z" fill="#F5F5F5"/>
</svg>
