<svg width="38" height="34" viewBox="0 0 38 34" fill="none" xmlns="http://www.w3.org/2000/svg">
<path d="M35.26 19.5507L34.5165 19.1858C33.6315 18.7523 33.1028 17.9743 33.1028 17.1063C33.1028 16.2383 33.6315 15.4603 34.5165 15.0269L35.26 14.6619C37.29 13.6654 37.9841 11.4659 36.8122 9.7418L35.3986 7.66236C34.2295 5.94189 31.6298 5.35119 29.6055 6.34409L28.8619 6.70788C27.977 7.1425 26.9182 7.1425 26.0347 6.70788C25.1497 6.27326 24.621 5.49647 24.621 4.62843V3.89966C24.621 1.91386 22.7183 0.297852 20.3802 0.297852H17.5529C15.2147 0.297852 13.312 1.91386 13.312 3.89966V4.62963C13.312 5.49767 12.7833 6.27446 11.8984 6.70908C11.0134 7.1425 9.95603 7.1437 9.0711 6.70908L8.32753 6.34409C6.30321 5.35119 3.70354 5.94189 2.53305 7.66236L1.11942 9.7418C-0.0524824 11.4659 0.641611 13.6666 2.67159 14.6619L3.41657 15.0269C4.3015 15.4603 4.8302 16.2383 4.8302 17.1063C4.8302 17.9743 4.3015 18.7523 3.41657 19.1858L2.673 19.5507C0.643024 20.546 -0.0510688 22.7467 1.12083 24.4708L2.53446 26.5503C3.70495 28.2707 6.30462 28.8614 8.32753 27.8685L9.0711 27.5047C9.95603 27.0689 11.0134 27.0713 11.8984 27.5047C12.7833 27.9394 13.312 28.7162 13.312 29.5842V30.313C13.312 32.2988 15.2147 33.9148 17.5529 33.9148H20.3802C22.7183 33.9148 24.621 32.2988 24.621 30.313V29.583C24.621 28.715 25.1497 27.9382 26.0347 27.5035C26.9182 27.0701 27.977 27.0689 28.8619 27.5035L29.6055 27.8685C31.6298 28.8602 34.2295 28.2695 35.3986 26.5503L36.8122 24.4708C37.9841 22.7467 37.29 20.546 35.26 19.5507ZM18.9665 23.1093C15.0691 23.1093 11.8984 20.4164 11.8984 17.1063C11.8984 13.7962 15.0691 11.1033 18.9665 11.1033C22.8639 11.1033 26.0347 13.7962 26.0347 17.1063C26.0347 20.4164 22.8639 23.1093 18.9665 23.1093Z" fill="#4B403B"/>
</svg>
