<svg width="44" height="37" viewBox="0 0 44 37" fill="none" xmlns="http://www.w3.org/2000/svg">
<path id="BocchLook2" d="M42.5317 30.9348L34.9393 24.7612C37.0319 22.2828 38.2633 19.2743 38.2621 16.0485C38.264 11.8052 36.1363 7.93582 32.7145 5.1579C29.2987 2.37574 24.5403 0.645575 19.3217 0.64679C14.1035 0.645575 9.34505 2.37543 5.92962 5.1579C2.50821 7.93551 0.380892 11.8049 0.382386 16.0485C0.380892 20.2923 2.50821 24.1614 5.92999 26.9387C9.3458 29.7212 14.1043 31.4514 19.3221 31.4495C23.1155 31.4508 26.6624 30.5339 29.6304 28.9668L37.2911 35.196C38.7383 36.3737 41.0845 36.3737 42.5313 35.196C43.9797 34.0194 43.9797 32.1116 42.5317 30.9348ZM11.1706 22.6773C9.07877 20.9717 7.79588 18.6466 7.79401 16.0485C7.79588 13.4503 9.07876 11.1255 11.171 9.41968C13.2688 7.71837 16.1274 6.67517 19.3221 6.67366C22.5175 6.67517 25.3761 7.71837 27.4743 9.41938C29.5661 11.1255 30.849 13.45 30.8505 16.0485C30.849 18.6466 29.5661 20.9717 27.4743 22.6773C25.3765 24.3786 22.5179 25.4215 19.3221 25.4227C16.1274 25.4215 13.2688 24.3786 11.1706 22.6773Z" fill="#4E423D"/>
</svg>
