<svg width="35" height="55" viewBox="0 0 35 55" fill="none" xmlns="http://www.w3.org/2000/svg">
<path d="M0 17.5C0 7.83502 7.83502 0 17.5 0C27.165 0 35 7.83502 35 17.5V37.5C35 47.165 27.165 55 17.5 55C7.83502 55 0 47.165 0 37.5V17.5Z" fill="#F5F5F5"/>
<path d="M20.2266 26.9067L20.098 26.8534L10.5171 22.8303C10.1927 22.6942 9.9939 22.496 10.0001 22.2794C10.0064 22.0629 10.2225 21.8732 10.5483 21.7504L20.3312 18.1267L20.494 18.0653C20.6502 18.0207 20.8368 17.9964 21.035 18.0004C21.5737 18.0115 22.0074 18.2286 21.9999 18.4873L21.8836 22.52L21.7673 26.5528C21.7598 26.8115 21.3142 27.0106 20.7754 26.9996C20.5711 26.9954 20.38 26.9605 20.2266 26.9067Z" fill="#453938"/>
</svg>
