<svg width="35" height="55" viewBox="0 0 35 55" fill="none" xmlns="http://www.w3.org/2000/svg">
<path d="M0 17.5C0 7.83502 7.83502 0 17.5 0C27.165 0 35 7.83502 35 17.5V37.5C35 47.165 27.165 55 17.5 55C7.83502 55 0 47.165 0 37.5V17.5Z" fill="#F5F5F5"/>
<path d="M13.7734 18.0933L13.902 18.1466L23.4829 22.1697C23.8073 22.3058 24.0061 22.504 23.9999 22.7206C23.9936 22.9371 23.7775 23.1268 23.4517 23.2496L13.6688 26.8733L13.506 26.9347C13.3498 26.9793 13.1632 27.0036 12.965 26.9996C12.4263 26.9885 11.9926 26.7714 12.0001 26.5127L12.1164 22.48L12.2327 18.4472C12.2402 18.1885 12.6858 17.9894 13.2246 18.0004C13.4289 18.0046 13.62 18.0395 13.7734 18.0933Z" fill="#453938"/>
</svg>
