<svg width="44" height="36" viewBox="0 0 44 36" fill="none" xmlns="http://www.w3.org/2000/svg">
<path id="BocchLook1" d="M42.5317 30.5717L34.9393 24.3982C37.0319 21.9197 38.2633 18.9113 38.2621 15.6854C38.264 11.4422 36.1363 7.57278 32.7145 4.79487C29.2987 2.0127 24.5403 0.282538 19.3217 0.283753C14.1035 0.282538 9.34505 2.0124 5.92962 4.79487C2.50821 7.57248 0.380892 11.4419 0.382386 15.6854C0.380892 19.9293 2.50821 23.7984 5.92999 26.5757C9.3458 29.3582 14.1043 31.0883 19.3221 31.0865C23.1155 31.0877 26.6624 30.1709 29.6304 28.6038L37.2911 34.8329C38.7383 36.0107 41.0845 36.0107 42.5313 34.8329C43.9797 33.6564 43.9797 31.7486 42.5317 30.5717ZM11.1706 22.3142C9.07877 20.6087 7.79588 18.2836 7.79401 15.6854C7.79588 13.0873 9.07876 10.7625 11.171 9.05664C13.2688 7.35533 16.1274 6.31214 19.3221 6.31062C22.5175 6.31214 25.3761 7.35533 27.4743 9.05634C29.5661 10.7625 30.849 13.087 30.8505 15.6854C30.849 18.2836 29.5661 20.6087 27.4743 22.3142C25.3765 24.0155 22.5179 25.0584 19.3221 25.0596C16.1274 25.0584 13.2688 24.0155 11.1706 22.3142Z" fill="#F5F5F5"/>
</svg>
