<svg width="36" height="31" viewBox="0 0 36 31" fill="none" xmlns="http://www.w3.org/2000/svg">
<path id="BochRequ2" d="M34.5522 13.4078L34.5402 13.4028L2.49702 0.777002C2.2275 0.669837 1.93422 0.627809 1.64342 0.654676C1.35262 0.681542 1.07336 0.776467 0.830631 0.930957C0.574179 1.09059 0.363527 1.30829 0.217628 1.56447C0.0717293 1.82064 -0.00483903 2.10726 -0.00518758 2.39853V10.4734C-0.00504507 10.8715 0.141312 11.2572 0.408659 11.5639C0.676005 11.8705 1.04759 12.079 1.45937 12.1533L18.9358 15.2232C19.0045 15.2355 19.0664 15.2703 19.111 15.3214C19.1556 15.3726 19.18 15.4369 19.18 15.5033C19.18 15.5697 19.1556 15.634 19.111 15.6852C19.0664 15.7363 19.0045 15.771 18.9358 15.7834L1.46012 18.8533C1.04846 18.9274 0.676892 19.1356 0.409426 19.442C0.14196 19.7484 -0.00466277 20.1338 -0.00518758 20.5318V28.6081C-0.00538684 28.8862 0.0671053 29.16 0.205784 29.405C0.344462 29.6499 0.544987 29.8583 0.789365 30.0115C1.08333 30.197 1.42831 30.2962 1.78124 30.2966C2.0266 30.2964 2.26945 30.2496 2.49552 30.159L34.538 17.6052L34.5522 17.5988C34.9835 17.4227 35.3511 17.1304 35.6093 16.7579C35.8675 16.3855 36.0052 15.9493 36.0052 15.5033C36.0052 15.0573 35.8675 14.6211 35.6093 14.2487C35.3511 13.8762 34.9835 13.5839 34.5522 13.4078Z" fill="#4E423D"/>
</svg>
