<svg width="40" height="35" viewBox="0 0 40 35" fill="none" xmlns="http://www.w3.org/2000/svg">
<path id="BochSett2" d="M36.912 20.0246L36.1402 19.6478C35.2217 19.2003 34.673 18.3971 34.673 17.5009C34.673 16.6047 35.2217 15.8014 36.1402 15.3539L36.912 14.9771C39.0189 13.9482 39.7393 11.6773 38.523 9.89729L37.0558 7.75034C35.8424 5.97402 33.1441 5.36415 31.0431 6.38928L30.2713 6.76487C29.3528 7.2136 28.2539 7.2136 27.3369 6.76487C26.4184 6.31614 25.8696 5.51414 25.8696 4.61792V3.8655C25.8696 1.81523 23.8948 0.146759 21.468 0.146759H18.5335C16.1067 0.146759 14.1318 1.81523 14.1318 3.8655V4.61916C14.1318 5.51538 13.5831 6.31738 12.6646 6.76611C11.7461 7.2136 10.6486 7.21484 9.73016 6.76611L8.9584 6.38928C6.85733 5.36415 4.1591 5.97402 2.94424 7.75034L1.47701 9.89729C0.260682 11.6773 0.98109 13.9495 3.08803 14.9771L3.86125 15.3539C4.77974 15.8014 5.32848 16.6047 5.32848 17.5009C5.32848 18.3971 4.77974 19.2003 3.86125 19.6478L3.08949 20.0246C0.982557 21.0523 0.262149 23.3244 1.47848 25.1044L2.9457 27.2514C4.16057 29.0277 6.8588 29.6376 8.9584 28.6125L9.73016 28.2369C10.6486 27.7869 11.7461 27.7894 12.6646 28.2369C13.5831 28.6856 14.1318 29.4876 14.1318 30.3838V31.1362C14.1318 33.1865 16.1067 34.855 18.5335 34.855H21.468C23.8948 34.855 25.8696 33.1865 25.8696 31.1362V30.3826C25.8696 29.4864 26.4184 28.6843 27.3369 28.2356C28.2539 27.7881 29.3528 27.7869 30.2713 28.2356L31.0431 28.6125C33.1441 29.6363 35.8424 29.0265 37.0558 27.2514L38.523 25.1044C39.7393 23.3244 39.0189 21.0523 36.912 20.0246ZM20.0007 23.6988C15.9556 23.6988 12.6646 20.9184 12.6646 17.5009C12.6646 14.0833 15.9556 11.303 20.0007 11.303C24.0459 11.303 27.3369 14.0833 27.3369 17.5009C27.3369 20.9184 24.0459 23.6988 20.0007 23.6988Z" fill="#4E423D"/>
</svg>
