<svg width="63" height="37" viewBox="0 0 63 37" fill="none" xmlns="http://www.w3.org/2000/svg">
<path d="M50.6305 6.18648L46.0592 1.68743C45.0474 0.700496 43.6806 0.146779 42.2561 0.14679H20.475C19.0537 0.14679 17.6804 0.704446 16.672 1.68743L12.1006 6.18648H0.768311V30.3547H6.91465C8.6049 30.3547 9.96861 29.0126 9.97822 27.3585H10.8522L18.9768 34.5797C21.9444 36.9521 26.0643 37.0088 29.1183 34.9388C30.3188 35.9596 31.6153 36.4417 33.0654 36.4417C34.8133 36.4417 36.4555 35.7422 37.752 34.1732C39.8744 34.9955 42.381 34.419 43.8983 32.5853L46.4145 29.5324C46.9523 28.8802 47.2884 28.1335 47.4613 27.3585H53.0218C53.0314 29.0126 54.4047 30.3547 56.0854 30.3547H62.2317V6.18648H50.6305ZM5.37807 27.3301C4.53294 27.3301 3.84148 26.6496 3.84148 25.8179C3.84148 24.9861 4.53294 24.3056 5.37807 24.3056C6.22319 24.3056 6.91465 24.9861 6.91465 25.8179C6.91465 26.6591 6.22319 27.3301 5.37807 27.3301ZM42.8323 26.678L40.3258 29.7214C40.0569 30.0428 39.5767 30.0995 39.2406 29.8349L36.9453 28.0012L34.0642 31.4511C33.488 32.1411 32.6236 31.9048 32.3355 31.678L28.8014 28.7007L27.3032 30.5154C25.9683 32.1316 23.5386 32.3774 21.9924 31.1392L12.648 22.8216H9.98782V10.7139H14.0118L19.9372 4.89159C20.1293 4.81597 20.2925 4.74981 20.4846 4.6742H25.9299L22.2133 8.02958C19.3898 10.5721 19.2265 14.8632 21.7907 17.6042C23.2121 19.1354 27.6682 21.4984 31.5384 18.0201L32.3259 17.3112L42.7171 25.6099C43.0436 25.8746 43.0916 26.3566 42.8323 26.678ZM53.0122 22.8216H46.3665C46.1456 22.557 45.8959 22.3112 45.627 22.0938L35.764 14.2111L36.9645 13.1335C37.5887 12.5664 37.6367 11.6118 37.0605 10.9974L36.0137 9.89159C35.4375 9.27722 34.4675 9.23941 33.8433 9.79707L28.5421 14.5797C27.6297 15.402 26.0739 15.4681 25.2192 14.5797C24.3261 13.6439 24.4029 12.2073 25.3345 11.3755L31.6345 5.69499C32.3451 5.05227 33.2671 4.70255 34.2275 4.70255L42.2657 4.68365C42.4674 4.68365 42.6595 4.75926 42.7939 4.90104L48.7194 10.7233H53.0122V22.8216ZM57.622 27.3301C56.7768 27.3301 56.0854 26.6496 56.0854 25.8179C56.0854 24.9861 56.7768 24.3056 57.622 24.3056C58.4671 24.3056 59.1586 24.9861 59.1586 25.8179C59.1586 26.6591 58.4671 27.3301 57.622 27.3301Z" fill="#453938"/>
</svg>
