<svg width="46" height="38" viewBox="0 0 46 38" fill="none" xmlns="http://www.w3.org/2000/svg">
<path id="BochMessa4" d="M42.9835 26.4439C45.2036 22.4824 45.6742 17.9973 44.3129 13.776C42.9515 9.55469 39.8451 5.86713 35.5392 3.36082C31.2333 0.854509 26.0031 -0.310316 20.7671 0.0708807C15.5311 0.452077 10.624 2.35493 6.90736 5.44529C3.19076 8.53566 0.902328 12.616 0.443886 16.9698C-0.0145551 21.3236 1.38631 25.6725 4.40049 29.2529C7.41467 32.8332 11.8495 35.4162 16.9262 36.5482C22.0029 37.6802 27.3969 37.2888 32.1611 35.4428L40.0336 37.0781C40.7128 37.2191 41.4243 37.2116 42.099 37.0561C42.7736 36.9007 43.3883 36.6026 43.8833 36.191C44.3783 35.7794 44.7368 35.2683 44.9237 34.7073C45.1107 34.1464 45.1198 33.5547 44.9502 32.99L42.9835 26.4439Z" fill="#4E423D"/>
</svg>
