<svg width="36" height="30" viewBox="0 0 36 30" fill="none" xmlns="http://www.w3.org/2000/svg">
<path id="BochRequ1" d="M34.5522 12.9361L34.5402 12.9311L2.49702 0.305322C2.2275 0.198158 1.93422 0.156129 1.64342 0.182996C1.35262 0.209863 1.07336 0.304787 0.830631 0.459278C0.574179 0.618913 0.363527 0.836612 0.217628 1.09279C0.0717293 1.34896 -0.00483903 1.63558 -0.00518758 1.92685V10.0017C-0.00504507 10.3999 0.141312 10.7855 0.408659 11.0922C0.676005 11.3989 1.04759 11.6073 1.45937 11.6817L18.9358 14.7515C19.0045 14.7639 19.0664 14.7986 19.111 14.8498C19.1556 14.9009 19.18 14.9652 19.18 15.0316C19.18 15.098 19.1556 15.1623 19.111 15.2135C19.0664 15.2646 19.0045 15.2994 18.9358 15.3117L1.46012 18.3816C1.04846 18.4557 0.676892 18.6639 0.409426 18.9703C0.14196 19.2767 -0.00466277 19.6621 -0.00518758 20.0601V28.1364C-0.00538684 28.4145 0.0671053 28.6883 0.205784 28.9333C0.344462 29.1782 0.544987 29.3866 0.789365 29.5398C1.08333 29.7253 1.42831 29.8245 1.78124 29.8249C2.0266 29.8247 2.26945 29.7779 2.49552 29.6873L34.538 17.1335L34.5522 17.1271C34.9835 16.951 35.3511 16.6587 35.6093 16.2862C35.8675 15.9138 36.0052 15.4776 36.0052 15.0316C36.0052 14.5856 35.8675 14.1494 35.6093 13.777C35.3511 13.4045 34.9835 13.1122 34.5522 12.9361Z" fill="#F5F5F5"/>
</svg>
