<svg width="40" height="35" viewBox="0 0 40 35" fill="none" xmlns="http://www.w3.org/2000/svg">
<path id="BochSett1" d="M36.912 20.0238L36.1402 19.647C35.2217 19.1995 34.673 18.3962 34.673 17.5C34.673 16.6038 35.2217 15.8005 36.1402 15.3531L36.912 14.9762C39.0189 13.9474 39.7393 11.6765 38.523 9.89643L37.0558 7.74948C35.8424 5.97317 33.1441 5.36329 31.0431 6.38842L30.2713 6.76402C29.3528 7.21275 28.2539 7.21275 27.3369 6.76402C26.4184 6.31529 25.8696 5.51328 25.8696 4.61707V3.86464C25.8696 1.81438 23.8948 0.145905 21.468 0.145905H18.5335C16.1067 0.145905 14.1318 1.81438 14.1318 3.86464V4.61831C14.1318 5.51452 13.5831 6.31653 12.6646 6.76526C11.7461 7.21275 10.6486 7.21398 9.73016 6.76526L8.9584 6.38842C6.85733 5.36329 4.1591 5.97317 2.94424 7.74948L1.47701 9.89643C0.260682 11.6765 0.98109 13.9486 3.08803 14.9762L3.86125 15.3531C4.77974 15.8005 5.32848 16.6038 5.32848 17.5C5.32848 18.3962 4.77974 19.1995 3.86125 19.647L3.08949 20.0238C0.982557 21.0514 0.262149 23.3236 1.47848 25.1036L2.9457 27.2505C4.16057 29.0269 6.8588 29.6367 8.9584 28.6116L9.73016 28.236C10.6486 27.786 11.7461 27.7885 12.6646 28.236C13.5831 28.6847 14.1318 29.4867 14.1318 30.383V31.1354C14.1318 33.1856 16.1067 34.8541 18.5335 34.8541H21.468C23.8948 34.8541 25.8696 33.1856 25.8696 31.1354V30.3817C25.8696 29.4855 26.4184 28.6835 27.3369 28.2348C28.2539 27.7873 29.3528 27.786 30.2713 28.2348L31.0431 28.6116C33.1441 29.6355 35.8424 29.0256 37.0558 27.2505L38.523 25.1036C39.7393 23.3236 39.0189 21.0514 36.912 20.0238ZM20.0007 23.6979C15.9556 23.6979 12.6646 20.9175 12.6646 17.5C12.6646 14.0825 15.9556 11.3021 20.0007 11.3021C24.0459 11.3021 27.3369 14.0825 27.3369 17.5C27.3369 20.9175 24.0459 23.6979 20.0007 23.6979Z" fill="#F5F5F5"/>
</svg>
