<svg width="44" height="44" viewBox="0 0 44 44" fill="none" xmlns="http://www.w3.org/2000/svg">
<g clip-path="url(#clip0_288_683)">
<path d="M12.9205 7.32952C12.4812 6.89016 11.7689 6.89016 11.3295 7.32952C10.8902 7.76885 10.8902 8.48116 11.3295 8.92049L19.2018 16.7928C15.4334 19.3565 12.6275 23.3661 11.6303 28.1453C11.5034 28.7535 11.8935 29.3495 12.5017 29.4764C13.11 29.6033 13.7059 29.2131 13.8328 28.6047C14.7414 24.2507 17.3531 20.6415 20.826 18.417L24.3851 21.9761C22.3965 23.4055 21.1013 25.7389 21.1013 28.375C21.1013 32.7243 24.6271 36.25 28.9763 36.25C31.6123 36.25 33.9457 34.9549 35.3752 32.9661L45.0794 42.6706C45.5188 43.1098 46.2312 43.1098 46.6706 42.6706C47.1098 42.2312 47.1098 41.5188 46.6706 41.0794L12.9205 7.32952Z" fill="#453938"/>
<path d="M29 21L37 28C36.8361 24.199 33.3441 21.1434 29 21Z" fill="#453938"/>
<path d="M24 14.8781L25.7322 16.5989C26.8912 16.3004 28.0962 16.1428 29.3254 16.1428C36.24 16.1428 42.3913 21.1289 43.8656 28.1471C43.9872 28.7265 44.5586 29.0981 45.1416 28.9772C45.7247 28.8561 46.0987 28.2887 45.977 27.7095C44.3004 19.728 37.2921 14 29.3254 14C27.4808 14 25.6876 14.3071 24 14.8781Z" fill="#453938"/>
</g>
<defs>
<clipPath id="clip0_288_683">
<rect width="44" height="44" fill="white"/>
</clipPath>
</defs>
</svg>
