<svg width="34" height="34" viewBox="0 0 34 34" fill="none" xmlns="http://www.w3.org/2000/svg">
<g clip-path="url(#clip0_268_1596)">
<path d="M9.54065 25.7236C10.7025 20.1557 15.5506 16.2 21.0002 16.2C26.4499 16.2 31.2978 20.1557 32.4597 25.7236C32.5558 26.1833 33.0059 26.478 33.4654 26.3822C33.9251 26.2861 34.2199 25.8359 34.124 25.3764C32.8024 19.0443 27.279 14.5 21.0002 14.5C14.7214 14.5 9.19781 19.0443 7.87649 25.3764C7.78061 25.8359 8.07541 26.2861 8.53495 26.3822C8.99449 26.478 9.44475 26.1833 9.54065 25.7236Z" fill="#F5F5F5"/>
<path d="M20.9822 19.6001C24.2683 19.6001 26.9322 22.264 26.9322 25.5501C26.9322 28.8362 24.2683 31.5001 20.9822 31.5001C17.6961 31.5001 15.0322 28.8362 15.0322 25.5501C15.0322 22.264 17.6961 19.6001 20.9822 19.6001Z" fill="#F5F5F5"/>
</g>
<defs>
<clipPath id="clip0_268_1596">
<rect width="34" height="34" fill="white"/>
</clipPath>
</defs>
</svg>
