<svg width="35" height="35" viewBox="0 0 35 35" fill="none" xmlns="http://www.w3.org/2000/svg">
<path d="M10.5729 9.11458C9.76751 9.11458 9.11458 9.76751 9.11458 10.5729V24.4271C9.11458 25.2325 9.76751 25.8854 10.5729 25.8854H24.4271C25.2325 25.8854 25.8854 25.2325 25.8854 24.4271V10.5729C25.8854 9.76751 25.2325 9.11458 24.4271 9.11458H10.5729ZM26.25 4.375H8.75C6.33376 4.375 4.375 6.33376 4.375 8.75V26.25C4.375 28.6663 6.33376 30.625 8.75 30.625H26.25C28.6663 30.625 30.625 28.6663 30.625 26.25V8.75C30.625 6.33376 28.6663 4.375 26.25 4.375ZM7.29167 8.75C7.29167 7.94459 7.94459 7.29167 8.75 7.29167H26.25C27.0554 7.29167 27.7083 7.94459 27.7083 8.75V26.25C27.7083 27.0554 27.0554 27.7083 26.25 27.7083H8.75C7.94459 27.7083 7.29167 27.0554 7.29167 26.25V8.75Z" fill="#212121"/>
</svg>
