<svg width="103" height="30" viewBox="0 0 103 30" fill="none" xmlns="http://www.w3.org/2000/svg">
<rect x="1.5" y="1.5" width="100" height="27" rx="8.5" stroke="#453938" stroke-width="3"/>
<ellipse cx="22.5" cy="15" rx="11.5" ry="11" fill="#453938"/>
<path d="M27.5887 18.8332L24.3618 15.5001L27.5887 12.1667C28.1371 11.6709 28.1371 10.8672 27.5887 10.3716C27.0399 9.87599 26.1508 9.8762 25.6027 10.3718L22.5 13.577L19.3973 10.3718C18.849 9.87641 17.9601 9.8762 17.4113 10.3716C16.8629 10.8675 16.8629 11.6711 17.4113 12.1667L20.6382 15.5001L17.4113 18.8332C16.8629 19.3289 16.8629 20.1325 17.4111 20.6281C17.9596 21.124 18.8488 21.124 19.3973 20.6281L22.5 17.4229L25.6027 20.6281C26.1515 21.124 27.0406 21.124 27.5889 20.6281C28.1371 20.1325 28.1371 19.3289 27.5887 18.8332Z" fill="#F5F5F5"/>
</svg>
