<svg width="26" height="25" viewBox="0 0 26 25" fill="none" xmlns="http://www.w3.org/2000/svg">
<ellipse cx="13" cy="12.5" rx="13" ry="12.5" fill="#F5F5F5"/>
<path d="M6.61261 14.1314C7.29606 10.8562 10.1479 8.5293 13.3535 8.5293C16.5592 8.5293 19.4109 10.8562 20.0944 14.1314C20.1509 14.4018 20.4157 14.5752 20.686 14.5188C20.9564 14.4623 21.1298 14.1975 21.0734 13.9272C20.296 10.2024 17.0469 7.5293 13.3535 7.5293C9.66012 7.5293 6.41094 10.2024 5.63369 13.9272C5.57729 14.1975 5.7507 14.4623 6.02102 14.5188C6.29134 14.5752 6.5562 14.4018 6.61261 14.1314Z" fill="#453938"/>
<path d="M13.3428 10.5293C15.2757 10.5293 16.8427 12.0963 16.8427 14.0293C16.8427 15.9623 15.2757 17.5293 13.3428 17.5293C11.4098 17.5293 9.84277 15.9623 9.84277 14.0293C9.84277 12.0963 11.4098 10.5293 13.3428 10.5293Z" fill="#453938"/>
</svg>
