<svg width="103" height="31" viewBox="0 0 103 31" fill="none" xmlns="http://www.w3.org/2000/svg">
<rect x="1.5" y="2.01196" width="100" height="27" rx="8.5" stroke="#453938" stroke-width="3"/>
<ellipse cx="19.5" cy="15.512" rx="11.5" ry="11" fill="#453938"/>
<path d="M24.5887 17.0678L21.3618 14.2167L24.5887 11.3653C25.1371 10.9412 25.1371 10.2538 24.5887 9.82984C24.0399 9.40588 23.1508 9.40607 22.6027 9.83002L19.5 12.5717L16.3973 9.83002C15.849 9.40625 14.9601 9.40607 14.4113 9.82984C13.8629 10.254 13.8629 10.9414 14.4113 11.3653L17.6382 14.2167L14.4113 17.0678C13.8629 17.4918 13.8629 18.1792 14.4111 18.6031C14.9596 19.0273 15.8488 19.0273 16.3973 18.6031L19.5 15.8614L22.6027 18.6031C23.1515 19.0273 24.0406 19.0273 24.5889 18.6031C25.1371 18.1792 25.1371 17.4918 24.5887 17.0678Z" fill="#F5F5F5"/>
</svg>
