<svg width="103" height="31" viewBox="0 0 103 31" fill="none" xmlns="http://www.w3.org/2000/svg">
<rect x="1.5" y="2.01196" width="100" height="27" rx="8.5" stroke="#453938" stroke-width="3"/>
<ellipse cx="19.5" cy="15.512" rx="11.5" ry="11" fill="#453938"/>
<path d="M24.5887 18.0678L21.3618 15.2167L24.5887 12.3653C25.1371 11.9412 25.1371 11.2538 24.5887 10.8298C24.0399 10.4059 23.1508 10.4061 22.6027 10.83L19.5 13.5717L16.3973 10.83C15.849 10.4062 14.9601 10.4061 14.4113 10.8298C13.8629 11.254 13.8629 11.9414 14.4113 12.3653L17.6382 15.2167L14.4113 18.0678C13.8629 18.4918 13.8629 19.1792 14.4111 19.6031C14.9596 20.0273 15.8488 20.0273 16.3973 19.6031L19.5 16.8614L22.6027 19.6031C23.1515 20.0273 24.0406 20.0273 24.5889 19.6031C25.1371 19.1792 25.1371 18.4918 24.5887 18.0678Z" fill="#F5F5F5"/>
</svg>
