<svg width="94" height="78" viewBox="0 0 94 78" fill="none" xmlns="http://www.w3.org/2000/svg">
<path d="M92.9872 66.7836C88.7638 59.8217 80.7865 54.0201 70.4628 50.5391C67.6473 49.7656 64.3625 49.7656 62.0162 50.9259C57.3236 53.2465 52.6311 54.4068 47 54.4068C41.3689 54.4068 36.6764 53.2465 31.9838 50.9259C29.6375 50.1523 26.3527 49.7656 23.5372 50.9259C13.2135 54.4068 5.23616 60.2084 1.01285 67.1704C-2.27194 72.1984 2.88988 78 9.92873 78H84.0713C91.1101 78 96.2719 72.1984 92.9872 66.7836Z" fill="#453938"/>
<path d="M47 47C60.2548 47 71 36.4787 71 23.5C71 10.5213 60.2548 0 47 0C33.7452 0 23 10.5213 23 23.5C23 36.4787 33.7452 47 47 47Z" fill="#453938"/>
</svg>
