<svg width="29" height="25" viewBox="0 0 29 25" fill="none" xmlns="http://www.w3.org/2000/svg">
<path d="M28.0319 21.0812C26.7609 19.017 24.36 17.2967 21.2531 16.2646C20.4057 16.0352 19.4171 16.0352 18.711 16.3793C17.2988 17.0674 15.8865 17.4114 14.1918 17.4114C12.4971 17.4114 11.0848 17.0674 9.67258 16.3793C8.96646 16.1499 7.97788 16.0352 7.13052 16.3793C4.02356 17.4114 1.62273 19.1316 0.351699 21.1959C-0.63688 22.6868 0.916601 24.407 3.03498 24.407H25.3486C27.467 24.407 29.0205 22.6868 28.0319 21.0812Z" fill="#453938"/>
<path d="M14.1917 15.1822C18.1662 15.1822 21.3882 11.9814 21.3882 8.03299C21.3882 4.08459 18.1662 0.883789 14.1917 0.883789C10.2171 0.883789 6.99512 4.08459 6.99512 8.03299C6.99512 11.9814 10.2171 15.1822 14.1917 15.1822Z" fill="#453938"/>
</svg>
