<svg width="49" height="41" viewBox="0 0 49 41" fill="none" xmlns="http://www.w3.org/2000/svg">
<path d="M48.1342 34.7398C45.9481 31.1892 41.8186 28.2304 36.4747 26.4551C35.0172 26.0606 33.3169 26.0606 32.1023 26.6524C29.6732 27.8359 27.2442 28.4277 24.3293 28.4277C21.4144 28.4277 18.9853 27.8359 16.5562 26.6524C15.3417 26.2579 13.6413 26.0606 12.1839 26.6524C6.8399 28.4277 2.71047 31.3865 0.524297 34.937C-1.17606 37.5013 1.49593 40.4601 5.13955 40.4601H43.519C47.1626 40.4601 49.8346 37.5013 48.1342 34.7398Z" fill="#453938"/>
<path d="M24.3292 24.5932C31.1654 24.5932 36.7073 19.0879 36.7073 12.2966C36.7073 5.50539 31.1654 0 24.3292 0C17.493 0 11.9512 5.50539 11.9512 12.2966C11.9512 19.0879 17.493 24.5932 24.3292 24.5932Z" fill="#453938"/>
</svg>
