<svg width="103" height="31" viewBox="0 0 103 31" fill="none" xmlns="http://www.w3.org/2000/svg">
<rect x="1.5" y="2.01196" width="100" height="27" rx="8.5" stroke="#453938" stroke-width="3"/>
<ellipse cx="19.5" cy="15.512" rx="11.5" ry="11" fill="#453938"/>
<path d="M24.5887 19.0678L21.3618 16.2167L24.5887 13.3653C25.1371 12.9412 25.1371 12.2538 24.5887 11.8298C24.0399 11.4059 23.1508 11.4061 22.6027 11.83L19.5 14.5717L16.3973 11.83C15.849 11.4062 14.9601 11.4061 14.4113 11.8298C13.8629 12.254 13.8629 12.9414 14.4113 13.3653L17.6382 16.2167L14.4113 19.0678C13.8629 19.4918 13.8629 20.1792 14.4111 20.6031C14.9596 21.0273 15.8488 21.0273 16.3973 20.6031L19.5 17.8614L22.6027 20.6031C23.1515 21.0273 24.0406 21.0273 24.5889 20.6031C25.1371 20.1792 25.1371 19.4918 24.5887 19.0678Z" fill="#F5F5F5"/>
</svg>
