<svg width="28" height="28" viewBox="0 0 28 28" fill="none" xmlns="http://www.w3.org/2000/svg">
<path d="M24.5254 0.528849L26.568 2.57162C27.273 3.27659 27.273 4.41969 26.568 5.12478L5.12456 26.568C4.41958 27.2731 3.27648 27.273 2.57139 26.568L0.528734 24.5252C-0.176245 23.8203 -0.176245 22.6772 0.528734 21.9721L21.9721 0.528616C22.6772 -0.176244 23.8203 -0.176244 24.5254 0.528849Z" fill="#453938"/>
<path d="M26.568 24.5253L24.5252 26.568C23.8202 27.273 22.6771 27.273 21.972 26.568L0.528732 5.12465C-0.176244 4.41968 -0.176244 3.27658 0.528732 2.57149L2.57149 0.528731C3.27647 -0.176244 4.41956 -0.176244 5.12466 0.528731L26.568 21.9721C27.273 22.6772 27.273 23.8203 26.568 24.5253Z" fill="#453938"/>
</svg>
