<svg width="164" height="815" viewBox="0 0 164 815" fill="none" xmlns="http://www.w3.org/2000/svg">
<rect width="164" height="815" fill="url(#paint0_linear_288_461)"/>
<ellipse cx="82" cy="73" rx="52" ry="46" fill="#E6D63B"/>
<path d="M97.25 45.5415H65.75C62.8505 45.5415 60.5 47.8174 60.5 50.6248C60.5 53.4323 62.8505 55.7082 65.75 55.7082H97.25C100.149 55.7082 102.5 53.4323 102.5 50.6248C102.5 47.8174 100.149 45.5415 97.25 45.5415Z" fill="#232323"/>
<path d="M97.25 91.2915H65.75C62.8505 91.2915 60.5 93.5674 60.5 96.3748C60.5 99.1823 62.8505 101.458 65.75 101.458H97.25C100.149 101.458 102.5 99.1823 102.5 96.3748C102.5 93.5674 100.149 91.2915 97.25 91.2915Z" fill="#232323"/>
<path d="M97.0138 60.7915C96.3969 64.3435 94.4999 67.5688 91.6598 69.8949C88.8196 72.221 85.22 73.4974 81.5001 73.4974C77.7801 73.4974 74.1806 72.221 71.3404 69.8949C68.5002 67.5688 66.6033 64.3435 65.9863 60.7915H97.0138Z" fill="#232323"/>
<path d="M97.0138 86.2083H65.9863C66.4643 83.4488 67.7184 80.8702 69.6108 78.7555C71.5032 76.6409 73.9608 75.072 76.7137 74.2211C79.4667 73.3703 82.4085 73.2703 85.2163 73.9322C88.0241 74.5941 90.5892 75.9923 92.6301 77.9733C94.9625 80.1943 96.4988 83.0803 97.0138 86.2083Z" fill="#232323"/>
<path d="M105.378 280.466C103.192 276.916 99.0628 273.957 93.7188 272.182C92.2614 271.787 90.561 271.787 89.3465 272.379C86.9174 273.562 84.4883 274.154 81.5734 274.154C78.6585 274.154 76.2294 273.562 73.8004 272.379C72.5858 271.984 70.8855 271.787 69.428 272.379C64.084 274.154 59.9546 277.113 57.7684 280.664C56.0681 283.228 58.7401 286.187 62.3837 286.187H100.763C104.407 286.187 107.079 283.228 105.378 280.466Z" fill="#F5F5F5"/>
<path d="M81.5734 270.32C88.4096 270.32 93.9514 264.814 93.9514 258.023C93.9514 251.232 88.4096 245.727 81.5734 245.727C74.7372 245.727 69.1953 251.232 69.1953 258.023C69.1953 264.814 74.7372 270.32 81.5734 270.32Z" fill="#F5F5F5"/>
<path d="M101.13 351.746L96.5584 347.247C95.5467 346.26 94.1799 345.707 92.7554 345.707H70.9743C69.5529 345.707 68.1796 346.264 67.1712 347.247L62.5999 351.746H51.2676V375.914H57.4139C59.1042 375.914 60.4679 374.572 60.4775 372.918H61.3514L69.4761 380.139C72.4436 382.512 76.5636 382.569 79.6176 380.499C80.818 381.519 82.1145 382.001 83.5647 382.001C85.3125 382.001 86.9548 381.302 88.2513 379.733C90.3737 380.555 92.8802 379.979 94.3976 378.145L96.9138 375.092C97.4516 374.44 97.7877 373.693 97.9606 372.918H103.521C103.531 374.572 104.904 375.914 106.585 375.914H112.731V351.746H101.13ZM55.8773 372.89C55.0322 372.89 54.3407 372.209 54.3407 371.378C54.3407 370.546 55.0322 369.865 55.8773 369.865C56.7225 369.865 57.4139 370.546 57.4139 371.378C57.4139 372.219 56.7225 372.89 55.8773 372.89ZM93.3316 372.238L90.825 375.281C90.5561 375.603 90.076 375.659 89.7398 375.395L87.4446 373.561L84.5635 377.011C83.9872 377.701 83.1229 377.465 82.8348 377.238L79.3007 374.26L77.8025 376.075C76.4676 377.691 74.0379 377.937 72.4917 376.699L63.1473 368.381H60.4871V356.274H64.511L70.4365 350.451C70.6286 350.376 70.7918 350.31 70.9839 350.234H76.4292L72.7125 353.589C69.8891 356.132 69.7258 360.423 72.29 363.164C73.7113 364.695 78.1674 367.058 82.0377 363.58L82.8252 362.871L93.2164 371.17C93.5429 371.434 93.5909 371.916 93.3316 372.238ZM103.511 368.381H96.8657C96.6449 368.117 96.3952 367.871 96.1263 367.654L86.2633 359.771L87.4638 358.693C88.088 358.126 88.136 357.172 87.5598 356.557L86.513 355.451C85.9368 354.837 84.9668 354.799 84.3426 355.357L79.0414 360.139C78.129 360.962 76.5732 361.028 75.7185 360.139C74.8254 359.204 74.9022 357.767 75.8337 356.935L82.1337 351.255C82.8444 350.612 83.7664 350.262 84.7267 350.262L92.765 350.243C92.9667 350.243 93.1587 350.319 93.2932 350.461L99.2186 356.283H103.511V368.381ZM108.121 372.89C107.276 372.89 106.585 372.209 106.585 371.378C106.585 370.546 107.276 369.865 108.121 369.865C108.966 369.865 109.658 370.546 109.658 371.378C109.658 372.219 108.966 372.89 108.121 372.89Z" fill="#F5F5F5"/>
<path d="M102.266 458.445C104.487 454.484 104.957 449.999 103.596 445.777C102.234 441.556 99.1281 437.869 94.8222 435.362C90.5163 432.856 85.2861 431.691 80.0501 432.072C74.8141 432.454 69.9069 434.356 66.1903 437.447C62.4737 440.537 60.1853 444.617 59.7268 448.971C59.2684 453.325 60.6693 457.674 63.6834 461.254C66.6976 464.835 71.1324 467.418 76.2091 468.55C81.2858 469.682 86.6798 469.29 91.444 467.444L99.3166 469.08C99.9958 469.221 100.707 469.213 101.382 469.058C102.057 468.902 102.671 468.604 103.166 468.192C103.661 467.781 104.02 467.27 104.207 466.709C104.394 466.148 104.403 465.556 104.233 464.991L102.266 458.445Z" fill="#F2F2F2"/>
<path d="M73.9465 454.012C76.1859 454.012 78.0014 452.502 78.0014 450.64C78.0014 448.778 76.1859 447.269 73.9465 447.269C71.707 447.269 69.8916 448.778 69.8916 450.64C69.8916 452.502 71.707 454.012 73.9465 454.012Z" fill="#4E423D"/>
<path d="M90.1662 454.012C92.4057 454.012 94.2211 452.502 94.2211 450.64C94.2211 448.778 92.4057 447.269 90.1662 447.269C87.9268 447.269 86.1113 448.778 86.1113 450.64C86.1113 452.502 87.9268 454.012 90.1662 454.012Z" fill="#4E423D"/>
<path d="M98.5516 617.377L98.5396 617.372L66.4963 604.747C66.2268 604.64 65.9335 604.597 65.6427 604.624C65.3519 604.651 65.0727 604.746 64.83 604.901C64.5735 605.06 64.3629 605.278 64.217 605.534C64.0711 605.79 63.9945 606.077 63.9941 606.368V614.443C63.9943 614.841 64.1406 615.227 64.408 615.534C64.6753 615.84 65.0469 616.049 65.4587 616.123L82.9351 619.193C83.0038 619.205 83.0658 619.24 83.1103 619.291C83.1549 619.342 83.1793 619.407 83.1793 619.473C83.1793 619.539 83.1549 619.604 83.1103 619.655C83.0658 619.706 83.0038 619.741 82.9351 619.753L65.4594 622.823C65.0478 622.897 64.6762 623.105 64.4088 623.412C64.1413 623.718 63.9947 624.103 63.9941 624.501V632.578C63.9939 632.856 64.0664 633.13 64.2051 633.375C64.3438 633.62 64.5443 633.828 64.7887 633.981C65.0827 634.167 65.4276 634.266 65.7806 634.266C66.0259 634.266 66.2688 634.219 66.4948 634.129L98.5373 621.575L98.5516 621.568C98.9829 621.392 99.3504 621.1 99.6086 620.728C99.8669 620.355 100.004 619.919 100.004 619.473C100.004 619.027 99.8669 618.591 99.6086 618.218C99.3504 617.846 98.9829 617.554 98.5516 617.377Z" fill="#F5F5F5"/>
<path d="M98.9119 704.144L98.1402 703.767C97.2217 703.32 96.6729 702.516 96.6729 701.62C96.6729 700.724 97.2217 699.921 98.1402 699.473L98.9119 699.096C101.019 698.068 101.739 695.797 100.523 694.017L99.0557 691.87C97.8423 690.093 95.1441 689.484 93.043 690.509L92.2713 690.884C91.3528 691.333 90.2538 691.333 89.3368 690.884C88.4183 690.435 87.8696 689.633 87.8696 688.737V687.985C87.8696 685.935 85.8947 684.266 83.4679 684.266H80.5334C78.1067 684.266 76.1318 685.935 76.1318 687.985V688.739C76.1318 689.635 75.583 690.437 74.6645 690.885C73.7461 691.333 72.6486 691.334 71.7301 690.885L70.9583 690.509C68.8573 689.484 66.159 690.093 64.9442 691.87L63.477 694.017C62.2606 695.797 62.981 698.069 65.088 699.096L65.8612 699.473C66.7797 699.921 67.3284 700.724 67.3284 701.62C67.3284 702.516 66.7797 703.32 65.8612 703.767L65.0894 704.144C62.9825 705.172 62.2621 707.444 63.4784 709.224L64.9456 711.371C66.1605 713.147 68.8587 713.757 70.9583 712.732L71.7301 712.356C72.6486 711.906 73.7461 711.909 74.6645 712.356C75.583 712.805 76.1318 713.607 76.1318 714.503V715.256C76.1318 717.306 78.1067 718.974 80.5334 718.974H83.4679C85.8947 718.974 87.8696 717.306 87.8696 715.256V714.502C87.8696 713.606 88.4183 712.804 89.3368 712.355C90.2538 711.907 91.3528 711.906 92.2713 712.355L93.043 712.732C95.1441 713.756 97.8423 713.146 99.0557 711.371L100.523 709.224C101.739 707.444 101.019 705.172 98.9119 704.144ZM82.0007 707.818C77.9555 707.818 74.6645 705.038 74.6645 701.62C74.6645 698.203 77.9555 695.422 82.0007 695.422C86.0458 695.422 89.3368 698.203 89.3368 701.62C89.3368 705.038 86.0458 707.818 82.0007 707.818Z" fill="#F5F5F5"/>
<rect x="47" y="507" width="70" height="58.7065" rx="26" fill="white"/>
<path d="M102.532 549.472L94.9398 543.299C97.0323 540.82 98.2637 537.812 98.2626 534.586C98.2644 530.343 96.1368 526.473 92.715 523.695C89.2992 520.913 84.5407 519.183 79.3221 519.184C74.1039 519.183 69.3455 520.913 65.93 523.695C62.5086 526.473 60.3813 530.342 60.3828 534.586C60.3813 538.83 62.5086 542.699 65.9304 545.476C69.3462 548.259 74.1047 549.989 79.3225 549.987C83.1159 549.988 86.6628 549.071 89.6308 547.504L97.2915 553.733C98.7388 554.911 101.085 554.911 102.532 553.733C103.98 552.557 103.98 550.649 102.532 549.472ZM71.171 541.215C69.0792 539.509 67.7963 537.184 67.7944 534.586C67.7963 531.988 69.0792 529.663 71.1714 527.957C73.2692 526.256 76.1278 525.212 79.3225 525.211C82.518 525.212 85.3765 526.256 87.4747 527.957C89.5666 529.663 90.8495 531.987 90.851 534.586C90.8495 537.184 89.5666 539.509 87.4747 541.215C85.3769 542.916 82.5183 543.959 79.3225 543.96C76.1278 543.959 73.2692 542.916 71.171 541.215Z" fill="#453938"/>
<defs>
<linearGradient id="paint0_linear_288_461" x1="82" y1="0" x2="82" y2="815" gradientUnits="userSpaceOnUse">
<stop stop-color="#453938" stop-opacity="0.77"/>
<stop offset="1" stop-color="#453938"/>
</linearGradient>
</defs>
</svg>
