<svg width="31" height="26" viewBox="0 0 31 26" fill="none" xmlns="http://www.w3.org/2000/svg">
<path d="M28.7823 18.4123C30.2633 15.7486 30.5773 12.7328 29.6691 9.89437C28.7609 7.05595 26.6886 4.57642 23.8161 2.89117C20.9435 1.20592 17.4544 0.42269 13.9614 0.679008C10.4684 0.935326 7.19479 2.21481 4.71541 4.29278C2.23602 6.37076 0.709379 9.11438 0.403547 12.0419C0.097715 14.9694 1.03225 17.8936 3.04304 20.3011C5.05384 22.7085 8.01235 24.4453 11.3991 25.2065C14.7858 25.9676 18.3842 25.7045 21.5625 24.4632L26.8143 25.5628C27.2674 25.6576 27.7421 25.6525 28.1922 25.548C28.6422 25.4435 29.0523 25.2431 29.3825 24.9663C29.7128 24.6896 29.9519 24.3458 30.0766 23.9687C30.2013 23.5915 30.2074 23.1936 30.0942 22.8139L28.7823 18.4123Z" fill="#453938"/>
<path d="M20.7099 15.4313C22.2039 15.4313 23.415 14.4163 23.415 13.1642C23.415 11.9121 22.2039 10.8971 20.7099 10.8971C19.216 10.8971 18.0049 11.9121 18.0049 13.1642C18.0049 14.4163 19.216 15.4313 20.7099 15.4313Z" fill="#F5F5F5"/>
<path d="M9.8906 15.4313C11.3846 15.4313 12.5957 14.4163 12.5957 13.1642C12.5957 11.9121 11.3846 10.8971 9.8906 10.8971C8.39664 10.8971 7.18555 11.9121 7.18555 13.1642C7.18555 14.4163 8.39664 15.4313 9.8906 15.4313Z" fill="#F5F5F5"/>
</svg>
