<svg width="103" height="31" viewBox="0 0 103 31" fill="none" xmlns="http://www.w3.org/2000/svg">
<rect y="0.511963" width="103" height="30" rx="10" fill="#453938"/>
<rect y="0.511963" width="103" height="30" rx="10" fill="#453938"/>
<ellipse cx="82.5" cy="15.512" rx="11.5" ry="11" fill="#F5F5F5"/>
<path d="M81.333 20.512C80.9163 20.512 80.4997 20.3453 80.1663 20.012L76.833 16.6786C76.1663 16.012 76.1663 15.012 76.833 14.3453C77.4997 13.6786 78.583 13.6786 79.1663 14.3453L81.333 16.512L86.833 11.012C87.4997 10.3453 88.4997 10.3453 89.1663 11.012C89.833 11.6786 89.833 12.6786 89.1663 13.3453L82.4997 20.012C82.1663 20.3453 81.7497 20.512 81.333 20.512Z" fill="black"/>
</svg>
