<svg width="70" height="59" viewBox="0 0 70 59" fill="none" xmlns="http://www.w3.org/2000/svg">
<rect width="70" height="58.7065" rx="26" fill="white"/>
<path d="M58.3784 43.4663C56.1922 39.9158 52.0628 36.957 46.7188 35.1817C45.2614 34.7872 43.561 34.7872 42.3465 35.3789C39.9174 36.5625 37.4883 37.1542 34.5734 37.1542C31.6585 37.1542 29.2294 36.5625 26.8004 35.3789C25.5858 34.9844 23.8855 34.7872 22.428 35.3789C17.084 37.1542 12.9546 40.113 10.7684 43.6636C9.06808 46.2279 11.7401 49.1867 15.3837 49.1867H53.7631C57.4067 49.1867 60.0787 46.2279 58.3784 43.4663Z" fill="#453938"/>
<path d="M34.5729 33.3198C41.4091 33.3198 46.9509 27.8144 46.9509 21.0232C46.9509 14.2319 41.4091 8.72656 34.5729 8.72656C27.7367 8.72656 22.1948 14.2319 22.1948 21.0232C22.1948 27.8144 27.7367 33.3198 34.5729 33.3198Z" fill="#453938"/>
</svg>
