<svg width="57" height="48" viewBox="0 0 57 48" fill="none" xmlns="http://www.w3.org/2000/svg">
<path d="M55.9156 40.3064C53.3888 36.1412 48.616 32.6702 42.4395 30.5875C40.755 30.1247 38.7897 30.1247 37.3859 30.8189C34.5784 32.2074 31.7709 32.9016 28.4019 32.9016C25.0329 32.9016 22.2253 32.2074 19.4178 30.8189C18.0141 30.3561 16.0488 30.1247 14.3643 30.8189C8.18775 32.9016 3.41497 36.3726 0.888206 40.5378C-1.07706 43.5461 2.01121 47.0171 6.22249 47.0171H50.5813C54.7926 47.0171 57.8808 43.5461 55.9156 40.3064Z" fill="#F5F5F5"/>
<path d="M28.401 28.4701C36.3312 28.4701 42.7599 22.1753 42.7599 14.4103C42.7599 6.64526 36.3312 0.350464 28.401 0.350464C20.4707 0.350464 14.042 6.64526 14.042 14.4103C14.042 22.1753 20.4707 28.4701 28.401 28.4701Z" fill="#F5F5F5"/>
</svg>
