<svg width="31" height="29" viewBox="0 0 31 29" fill="none" xmlns="http://www.w3.org/2000/svg">
<path d="M6.88418 17.2188C5.21914 17.2188 3.875 16.0066 3.875 14.5C3.875 12.999 5.21914 11.7812 6.88418 11.7812C8.55527 11.7812 9.89941 12.999 9.89941 14.5C9.89941 16.0066 8.55527 17.2188 6.88418 17.2188Z" fill="#F5F5F5"/>
<path d="M15.4996 17.2188C13.8346 17.2188 12.4844 16.0066 12.4844 14.5C12.4844 12.999 13.8346 11.7812 15.4996 11.7812C17.1646 11.7812 18.5088 12.999 18.5088 14.5C18.5088 16.0066 17.1646 17.2188 15.4996 17.2188Z" fill="#F5F5F5"/>
<path d="M24.11 17.2188C22.4449 17.2188 21.0947 16.0066 21.0947 14.5C21.0947 12.999 22.4389 11.7812 24.11 11.7812C25.775 11.7812 27.1252 12.999 27.1252 14.5C27.1252 16.0066 25.7811 17.2188 24.11 17.2188Z" fill="#F5F5F5"/>
</svg>
