<svg width="33" height="31" viewBox="0 0 33 31" fill="none" xmlns="http://www.w3.org/2000/svg">
<path d="M7.32832 18.4062C5.55586 18.4062 4.125 17.1105 4.125 15.5C4.125 13.8955 5.55586 12.5938 7.32832 12.5938C9.10723 12.5938 10.5381 13.8955 10.5381 15.5C10.5381 17.1105 9.10723 18.4062 7.32832 18.4062Z" fill="#453938"/>
<path d="M16.4998 18.4062C14.7273 18.4062 13.29 17.1105 13.29 15.5C13.29 13.8955 14.7273 12.5938 16.4998 12.5938C18.2723 12.5938 19.7031 13.8955 19.7031 15.5C19.7031 17.1105 18.2723 18.4062 16.4998 18.4062Z" fill="#453938"/>
<path d="M25.6648 18.4062C23.8924 18.4062 22.4551 17.1105 22.4551 15.5C22.4551 13.8955 23.8859 12.5938 25.6648 12.5938C27.4373 12.5938 28.8746 13.8955 28.8746 15.5C28.8746 17.1105 27.4438 18.4062 25.6648 18.4062Z" fill="#453938"/>
</svg>
