<svg width="160" height="160" viewBox="0 0 160 160" fill="none" xmlns="http://www.w3.org/2000/svg">
<path d="M32.4 139.088L71.2 113.088C73.7973 111.328 76.8626 110.387 80 110.387C83.1374 110.387 86.2027 111.328 88.8 113.088L127.6 139.088C128.776 139.915 130.157 140.404 131.592 140.502C133.026 140.6 134.461 140.304 135.739 139.644C137.016 138.984 138.089 137.987 138.841 136.761C139.592 135.535 139.993 134.126 140 132.688V43.488C139.981 37.1287 137.446 31.0352 132.95 26.5385C128.453 22.0417 122.359 19.507 116 19.488H44C37.6406 19.507 31.5472 22.0417 27.0504 26.5385C22.5537 31.0352 20.019 37.1287 20 43.488V132.688C20.0072 134.126 20.4082 135.535 21.1594 136.761C21.9107 137.987 22.9835 138.984 24.2615 139.644C25.5394 140.304 26.9736 140.6 28.4084 140.502C29.8431 140.404 31.2236 139.915 32.4 139.088ZM36 43.488C36 41.3663 36.8429 39.3315 38.3431 37.8312C39.8434 36.3309 41.8783 35.488 44 35.488H116C118.122 35.488 120.157 36.3309 121.657 37.8312C123.157 39.3315 124 41.3663 124 43.488V117.488L97.6 99.888C92.3331 96.3626 86.1379 94.4805 79.8 94.4805C73.4621 94.4805 67.2669 96.3626 62 99.888L35.6 117.488V43.488H36Z" fill="black"/>
</svg>
