<svg width="30" height="30" viewBox="0 0 30 30" fill="none" xmlns="http://www.w3.org/2000/svg">
<path d="M26.333 12.5014H20.6663H9.33301V9.00139C9.33301 6.37639 11.458 4.00139 14.433 3.75139C17.833 3.50139 20.6663 5.87639 20.6663 8.75139C20.6663 9.50139 21.233 10.0014 22.083 10.0014H23.4997C24.3497 10.0014 24.9163 9.50139 24.9163 8.75139C24.9163 4.00139 20.6663 0.126387 15.283 0.00138747C9.75801 -0.123613 5.08301 3.87639 5.08301 8.75139V12.5014H3.66634C2.10801 12.5014 0.833008 13.6264 0.833008 15.0014V23.7514C0.833008 27.2514 3.94967 30.0014 7.91634 30.0014H22.083C26.0497 30.0014 29.1663 27.2514 29.1663 23.7514V15.0014C29.1663 13.6264 27.8913 12.5014 26.333 12.5014ZM16.4163 22.1264V23.7514C16.4163 24.3764 15.708 25.0014 14.9997 25.0014C14.2913 25.0014 13.583 24.3764 13.583 23.7514V22.1264C12.733 21.7514 12.1663 20.8764 12.1663 20.0014C12.1663 18.6264 13.4413 17.5014 14.9997 17.5014C16.558 17.5014 17.833 18.6264 17.833 20.0014C17.833 20.8764 17.2663 21.7514 16.4163 22.1264Z" fill="#F5F5F5"/>
</svg>
