<svg width="29" height="25" viewBox="0 0 29 25" fill="none" xmlns="http://www.w3.org/2000/svg">
<path d="M14.5003 15C18.498 15 21.7388 11.6421 21.7388 7.5C21.7388 3.35786 18.498 0 14.5003 0C10.5025 0 7.26172 3.35786 7.26172 7.5C7.26172 11.6421 10.5025 15 14.5003 15Z" fill="#F5F5F5"/>
<path d="M28.6875 21.3749C27.3846 19.1249 24.9235 17.2499 21.7385 16.1249C20.8699 15.8749 19.8565 15.8749 19.1327 16.2499C17.685 16.9999 16.2372 17.3749 14.5 17.3749C12.7628 17.3749 11.315 16.9999 9.86734 16.2499C9.14349 15.9999 8.13009 15.8749 7.26147 16.2499C4.07651 17.3749 1.61541 19.2499 0.312476 21.4999C-0.700919 23.1249 0.891558 24.9999 3.06312 24.9999H25.9369C28.1084 24.9999 29.7009 23.1249 28.6875 21.3749Z" fill="#F5F5F5"/>
</svg>
