<svg width="90" height="74" viewBox="0 0 90 74" fill="none" xmlns="http://www.w3.org/2000/svg">
<path d="M45.4166 44.2378C57.7084 44.2378 67.673 34.4734 67.673 22.4285C67.673 10.3835 57.7084 0.619141 45.4166 0.619141C33.1247 0.619141 23.1602 10.3835 23.1602 22.4285C23.1602 34.4734 33.1247 44.2378 45.4166 44.2378Z" fill="#F5F5F5"/>
<path d="M89.0389 62.7751C85.0327 56.2323 77.4656 50.78 67.6727 47.5086C65.002 46.7816 61.8861 46.7816 59.6604 47.8721C55.2092 50.053 50.7579 51.1435 45.4163 51.1435C40.0748 51.1435 35.6235 50.053 31.1722 47.8721C28.9466 47.1451 25.8307 46.7816 23.1599 47.8721C13.3671 51.1435 5.79993 56.5958 1.79378 63.1386C-1.32212 67.864 3.57429 73.3163 10.2512 73.3163H80.5815C87.2584 73.3163 92.1548 67.864 89.0389 62.7751Z" fill="#F5F5F5"/>
</svg>
