<svg width="36" height="31" viewBox="0 0 36 31" fill="none" xmlns="http://www.w3.org/2000/svg">
<path d="M34.5516 13.3775L34.5396 13.3725L2.49634 0.746667C2.22683 0.639503 1.93355 0.597474 1.64275 0.624341C1.35195 0.651208 1.07269 0.746132 0.829959 0.900623C0.573508 1.06026 0.362856 1.27796 0.216957 1.53413C0.0710579 1.79031 -0.00551042 2.07692 -0.00585897 2.36819V10.443C-0.00571646 10.8412 0.140641 11.2269 0.407987 11.5335C0.675334 11.8402 1.04692 12.0487 1.4587 12.123L18.9351 15.1928C19.0038 15.2052 19.0658 15.24 19.1103 15.2911C19.1549 15.3422 19.1793 15.4066 19.1793 15.473C19.1793 15.5394 19.1549 15.6037 19.1103 15.6548C19.0658 15.706 19.0038 15.7407 18.9351 15.7531L1.45945 18.8229C1.04778 18.8971 0.67622 19.1052 0.408754 19.4116C0.141288 19.718 -0.00533416 20.1034 -0.00585897 20.5015V28.5777C-0.00605822 28.8559 0.0664339 29.1297 0.205112 29.3746C0.34379 29.6196 0.544316 29.828 0.788694 29.9811C1.08266 30.1667 1.42764 30.2659 1.78057 30.2663C2.02593 30.266 2.26877 30.2193 2.49484 30.1287L34.5373 17.5749L34.5516 17.5685C34.9829 17.3924 35.3504 17.1 35.6086 16.7276C35.8669 16.3551 36.0045 15.9189 36.0045 15.473C36.0045 15.027 35.8669 14.5908 35.6086 14.2183C35.3504 13.8459 34.9829 13.5535 34.5516 13.3775Z" fill="#F5F5F5"/>
</svg>
