<svg width="120" height="122" viewBox="0 0 120 122" fill="none" xmlns="http://www.w3.org/2000/svg">
<path d="M12.4 119.6L51.2 93.6C53.7973 91.8401 56.8626 90.8994 60 90.8994C63.1374 90.8994 66.2027 91.8401 68.8 93.6L107.6 119.6C108.776 120.427 110.157 120.916 111.592 121.014C113.026 121.112 114.461 120.815 115.739 120.156C117.016 119.496 118.089 118.499 118.841 117.273C119.592 116.047 119.993 114.638 120 113.2V24C119.981 17.6406 117.446 11.5472 112.95 7.05042C108.453 2.55366 102.359 0.0189927 96 0H24C17.6406 0.0189927 11.5472 2.55366 7.05042 7.05042C2.55366 11.5472 0.0189927 17.6406 0 24V113.2C0.00718137 114.638 0.408171 116.047 1.15944 117.273C1.9107 118.499 2.98353 119.496 4.26147 120.156C5.5394 120.815 6.9736 121.112 8.40836 121.014C9.84312 120.916 11.2236 120.427 12.4 119.6ZM16 24C16 21.8783 16.8429 19.8434 18.3431 18.3431C19.8434 16.8429 21.8783 16 24 16H96C98.1217 16 100.157 16.8429 101.657 18.3431C103.157 19.8434 104 21.8783 104 24V98L77.6 80.4C72.3331 76.8745 66.1379 74.9925 59.8 74.9925C53.4621 74.9925 47.2669 76.8745 42 80.4L15.6 98V24H16Z" fill="black"/>
</svg>
