<svg width="193" height="155" viewBox="0 0 193 155" fill="none" xmlns="http://www.w3.org/2000/svg">
<path d="M164.588 4.49616C161.7 1.85866 158.812 0.979492 154 0.979492C146.3 0.979492 139.562 7.13366 139.562 14.167C139.562 17.6837 141.488 21.2003 143.412 23.8378C155.925 35.267 162.662 50.2128 162.662 66.917C162.662 101.204 132.825 128.459 95.2875 128.459C57.75 128.459 27.9125 101.204 27.9125 66.917C27.9125 50.2128 35.6125 34.3878 48.125 23.8378C51.0125 21.2003 52.9375 17.6837 52.9375 14.167C52.9375 7.13366 46.2 0.979492 38.5 0.979492C34.65 0.979492 30.8 2.73783 27.9125 4.49616C10.5875 20.3212 0 42.3003 0 66.917C0 115.271 43.3125 154.834 96.25 154.834C149.188 154.834 192.5 115.271 192.5 66.917C192.5 42.3003 181.913 20.3212 164.588 4.49616Z" fill="#E6D63B"/>
</svg>
