<svg width="44" height="36" viewBox="0 0 44 36" fill="none" xmlns="http://www.w3.org/2000/svg">
<path d="M42.5321 30.4721L34.9398 24.2985C37.0323 21.8201 38.2637 18.8116 38.2626 15.5858C38.2644 11.3425 36.1368 7.47311 32.715 4.6952C29.2992 1.91303 24.5407 0.182868 19.3221 0.184083C14.1039 0.182868 9.34548 1.91273 5.93005 4.6952C2.50864 7.47281 0.381319 11.3422 0.382813 15.5858C0.381319 19.8296 2.50864 23.6987 5.93042 26.476C9.34623 29.2585 14.1047 30.9887 19.3225 30.9868C23.1159 30.9881 26.6628 30.0712 29.6308 28.5041L37.2915 34.7332C38.7388 35.911 41.0849 35.911 42.5318 34.7332C43.9801 33.5567 43.9801 31.6489 42.5321 30.4721ZM11.171 22.2146C9.07919 20.509 7.7963 18.1839 7.79444 15.5858C7.7963 12.9876 9.07919 10.6628 11.1714 8.95697C13.2692 7.25566 16.1278 6.21247 19.3225 6.21095C22.518 6.21247 25.3765 7.25566 27.4747 8.95667C29.5666 10.6628 30.8495 12.9873 30.851 15.5858C30.8495 18.1839 29.5666 20.509 27.4747 22.2146C25.3769 23.9159 22.5183 24.9588 19.3225 24.96C16.1278 24.9588 13.2692 23.9159 11.171 22.2146Z" fill="#F5F5F5"/>
</svg>
