<svg width="27" height="27" viewBox="0 0 27 27" fill="none" xmlns="http://www.w3.org/2000/svg">
<path d="M6.57292 5.11458C5.76751 5.11458 5.11458 5.76751 5.11458 6.57292V20.4271C5.11458 21.2325 5.76751 21.8854 6.57292 21.8854H20.4271C21.2325 21.8854 21.8854 21.2325 21.8854 20.4271V6.57292C21.8854 5.76751 21.2325 5.11458 20.4271 5.11458H6.57292ZM22.25 0.375H4.75C2.33376 0.375 0.375 2.33376 0.375 4.75V22.25C0.375 24.6663 2.33376 26.625 4.75 26.625H22.25C24.6663 26.625 26.625 24.6663 26.625 22.25V4.75C26.625 2.33376 24.6663 0.375 22.25 0.375ZM3.29167 4.75C3.29167 3.94459 3.94459 3.29167 4.75 3.29167H22.25C23.0554 3.29167 23.7083 3.94459 23.7083 4.75V22.25C23.7083 23.0554 23.0554 23.7083 22.25 23.7083H4.75C3.94459 23.7083 3.29167 23.0554 3.29167 22.25V4.75Z" fill="#212121"/>
</svg>
