<svg width="62" height="37" viewBox="0 0 62 37" fill="none" xmlns="http://www.w3.org/2000/svg">
<path d="M50.1298 6.74624L45.5584 2.24719C44.5467 1.26025 43.1799 0.706532 41.7554 0.706543H19.9743C18.5529 0.706543 17.1796 1.2642 16.1712 2.24719L11.5999 6.74624H0.267578V30.9145H6.41392C8.10416 30.9145 9.46788 29.5723 9.47749 27.9182H10.3514L18.4761 35.1394C21.4436 37.5118 25.5636 37.5685 28.6176 35.4986C29.818 36.5194 31.1145 37.0014 32.5647 37.0014C34.3125 37.0014 35.9548 36.302 37.2513 34.733C39.3737 35.5553 41.8802 34.9787 43.3976 33.1451L45.9138 30.0922C46.4516 29.44 46.7877 28.6933 46.9606 27.9182H52.5211C52.5307 29.5723 53.904 30.9145 55.5846 30.9145H61.731V6.74624H50.1298ZM4.87733 27.8899C4.03221 27.8899 3.34075 27.2094 3.34075 26.3776C3.34075 25.5459 4.03221 24.8653 4.87733 24.8653C5.72246 24.8653 6.41392 25.5459 6.41392 26.3776C6.41392 27.2188 5.72246 27.8899 4.87733 27.8899ZM42.3316 27.2377L39.825 30.2812C39.5561 30.6026 39.076 30.6593 38.7398 30.3946L36.4446 28.561L33.5635 32.0109C32.9872 32.7009 32.1229 32.4646 31.8348 32.2377L28.3007 29.2604L26.8025 31.0751C25.4676 32.6914 23.0379 32.9371 21.4917 31.699L12.1473 23.3814H9.48709V11.2736H13.511L19.4365 5.45134C19.6286 5.37573 19.7918 5.30957 19.9839 5.23395H25.4292L21.7125 8.58934C18.8891 11.1319 18.7258 15.423 21.29 18.164C22.7113 19.6952 27.1674 22.0581 31.0377 18.5799L31.8252 17.871L42.2164 26.1697C42.5429 26.4343 42.5909 26.9164 42.3316 27.2377ZM52.5115 23.3814H45.8657C45.6449 23.1167 45.3952 22.871 45.1263 22.6536L35.2633 14.7708L36.4638 13.6933C37.088 13.1262 37.136 12.1716 36.5598 11.5572L35.513 10.4513C34.9368 9.83697 33.9668 9.79917 33.3426 10.3568L28.0414 15.1394C27.129 15.9617 25.5732 16.0279 24.7185 15.1394C23.8254 14.2037 23.9022 12.767 24.8337 11.9353L31.1337 6.25474C31.8444 5.61202 32.7664 5.26231 33.7267 5.26231L41.765 5.2434C41.9667 5.2434 42.1587 5.31902 42.2932 5.46079L48.2186 11.2831H52.5115V23.3814ZM57.1212 27.8899C56.2761 27.8899 55.5846 27.2094 55.5846 26.3776C55.5846 25.5459 56.2761 24.8653 57.1212 24.8653C57.9664 24.8653 58.6578 25.5459 58.6578 26.3776C58.6578 27.2188 57.9664 27.8899 57.1212 27.8899Z" fill="#F5F5F5"/>
</svg>
