<svg width="36" height="36" viewBox="0 0 36 36" fill="none" xmlns="http://www.w3.org/2000/svg">
<path d="M1.92049 0.329518C1.48116 -0.109839 0.768853 -0.109839 0.329518 0.329518C-0.109839 0.768853 -0.109839 1.48116 0.329518 1.92049L8.20184 9.79284C4.43338 12.3565 1.62752 16.3661 0.630253 21.1453C0.503353 21.7535 0.893525 22.3495 1.50175 22.4764C2.10997 22.6033 2.7059 22.2131 2.83282 21.6047C3.7414 17.2507 6.35315 13.6415 9.82598 11.417L13.3851 14.9761C11.3965 16.4055 10.1013 18.7389 10.1013 21.375C10.1013 25.7243 13.6271 29.25 17.9763 29.25C20.6123 29.25 22.9457 27.9549 24.3752 25.9661L34.0794 35.6706C34.5188 36.1098 35.2312 36.1098 35.6706 35.6706C36.1098 35.2312 36.1098 34.5188 35.6706 34.0794L1.92049 0.329518Z" fill="#453938"/>
</svg>
